<svg width="32" height="32" viewBox="0 0 32 32" fill="none" xmlns="http://www.w3.org/2000/svg">
<rect width="32" height="32" rx="16" transform="matrix(-1 0 0 1 32 0)" fill="#F6F6F7"/>
<path d="M13.6827 22.5025C13.5402 22.5025 13.3977 22.45 13.2852 22.3375C13.0677 22.12 13.0677 21.76 13.2852 21.5425L18.1752 16.6525C18.5352 16.2925 18.5352 15.7075 18.1752 15.3475L13.2852 10.4575C13.0677 10.24 13.0677 9.88001 13.2852 9.66251C13.5027 9.44501 13.8627 9.44501 14.0802 9.66251L18.9702 14.5525C19.3527 14.935 19.5702 15.4525 19.5702 16C19.5702 16.5475 19.3602 17.065 18.9702 17.4475L14.0802 22.3375C13.9677 22.4425 13.8252 22.5025 13.6827 22.5025Z" fill="#212C2D"/>
</svg>
