<svg width="20" height="21" viewBox="0 0 20 21" fill="none" xmlns="http://www.w3.org/2000/svg">
<path opacity="0.4" d="M13.4891 2.57324H6.50573C3.4724 2.57324 1.66406 4.38158 1.66406 7.41491V14.3899C1.66406 17.4316 3.4724 19.2399 6.50573 19.2399H13.4807C16.5141 19.2399 18.3224 17.4316 18.3224 14.3982V7.41491C18.3307 4.38158 16.5224 2.57324 13.4891 2.57324Z" fill="white"/>
<path d="M12.9418 14.7843C12.7835 14.7843 12.6251 14.726 12.5001 14.601L10.0001 12.101L7.50013 14.601C7.25846 14.8426 6.85846 14.8426 6.6168 14.601C6.37513 14.3593 6.37513 13.9593 6.6168 13.7176L9.55846 10.776C9.80013 10.5343 10.2001 10.5343 10.4418 10.776L13.3835 13.7176C13.6251 13.9593 13.6251 14.3593 13.3835 14.601C13.2585 14.726 13.1001 14.7843 12.9418 14.7843Z" fill="white"/>
<path d="M12.9418 11.0343C12.7835 11.0343 12.6251 10.976 12.5001 10.851L10.0001 8.35098L7.50013 10.851C7.25846 11.0926 6.85846 11.0926 6.6168 10.851C6.37513 10.6093 6.37513 10.2093 6.6168 9.96764L9.55846 7.02598C9.80013 6.78431 10.2001 6.78431 10.4418 7.02598L13.3835 9.96764C13.6251 10.2093 13.6251 10.6093 13.3835 10.851C13.2585 10.976 13.1001 11.0343 12.9418 11.0343Z" fill="white"/>
</svg>
