<svg width="60" height="61" viewBox="0 0 60 61" fill="none" xmlns="http://www.w3.org/2000/svg">
<rect y="0.279785" width="60" height="60" rx="16" fill="#F6F6F6"/>
<path d="M36.3343 19.0268V16.9468C36.3343 16.4001 35.881 15.9468 35.3343 15.9468C34.7876 15.9468 34.3343 16.4001 34.3343 16.9468V18.9468H25.6676V16.9468C25.6676 16.4001 25.2143 15.9468 24.6676 15.9468C24.121 15.9468 23.6676 16.4001 23.6676 16.9468V19.0268C20.0676 19.3601 18.321 21.5068 18.0543 24.6934C18.0276 25.0801 18.3476 25.4001 18.721 25.4001H41.281C41.6676 25.4001 41.9876 25.0668 41.9476 24.6934C41.681 21.5068 39.9343 19.3601 36.3343 19.0268Z" fill="#7D7D7D"/>
<path d="M40.6667 27.3999H19.3333C18.6 27.3999 18 27.9999 18 28.7332V36.9466C18 40.9466 20 43.6132 24.6667 43.6132H35.3333C40 43.6132 42 40.9466 42 36.9466V28.7332C42 27.9999 41.4 27.3999 40.6667 27.3999ZM26.28 38.5599C26.2133 38.6132 26.1467 38.6799 26.08 38.7199C26 38.7732 25.92 38.8132 25.84 38.8399C25.76 38.8799 25.68 38.9066 25.6 38.9199C25.5067 38.9332 25.4267 38.9466 25.3333 38.9466C25.16 38.9466 24.9867 38.9066 24.8267 38.8399C24.6533 38.7732 24.52 38.6799 24.3867 38.5599C24.1467 38.3066 24 37.9599 24 37.6132C24 37.2666 24.1467 36.9199 24.3867 36.6666C24.52 36.5466 24.6533 36.4532 24.8267 36.3866C25.0667 36.2799 25.3333 36.2532 25.6 36.3066C25.68 36.3199 25.76 36.3466 25.84 36.3866C25.92 36.4132 26 36.4532 26.08 36.5066C26.1467 36.5599 26.2133 36.6132 26.28 36.6666C26.52 36.9199 26.6667 37.2666 26.6667 37.6132C26.6667 37.9599 26.52 38.3066 26.28 38.5599ZM26.28 33.8932C26.0267 34.1332 25.68 34.2799 25.3333 34.2799C24.9867 34.2799 24.64 34.1332 24.3867 33.8932C24.1467 33.6399 24 33.2932 24 32.9466C24 32.5999 24.1467 32.2532 24.3867 31.9999C24.76 31.6266 25.3467 31.5066 25.84 31.7199C26.0133 31.7866 26.16 31.8799 26.28 31.9999C26.52 32.2532 26.6667 32.5999 26.6667 32.9466C26.6667 33.2932 26.52 33.6399 26.28 33.8932ZM30.9467 38.5599C30.6933 38.7999 30.3467 38.9466 30 38.9466C29.6533 38.9466 29.3067 38.7999 29.0533 38.5599C28.8133 38.3066 28.6667 37.9599 28.6667 37.6132C28.6667 37.2666 28.8133 36.9199 29.0533 36.6666C29.5467 36.1732 30.4533 36.1732 30.9467 36.6666C31.1867 36.9199 31.3333 37.2666 31.3333 37.6132C31.3333 37.9599 31.1867 38.3066 30.9467 38.5599ZM30.9467 33.8932C30.88 33.9466 30.8133 33.9999 30.7467 34.0532C30.6667 34.1066 30.5867 34.1466 30.5067 34.1732C30.4267 34.2132 30.3467 34.2399 30.2667 34.2532C30.1733 34.2666 30.0933 34.2799 30 34.2799C29.6533 34.2799 29.3067 34.1332 29.0533 33.8932C28.8133 33.6399 28.6667 33.2932 28.6667 32.9466C28.6667 32.5999 28.8133 32.2532 29.0533 31.9999C29.1733 31.8799 29.32 31.7866 29.4933 31.7199C29.9867 31.5066 30.5733 31.6266 30.9467 31.9999C31.1867 32.2532 31.3333 32.5999 31.3333 32.9466C31.3333 33.2932 31.1867 33.6399 30.9467 33.8932ZM35.6133 38.5599C35.36 38.7999 35.0133 38.9466 34.6667 38.9466C34.32 38.9466 33.9733 38.7999 33.72 38.5599C33.48 38.3066 33.3333 37.9599 33.3333 37.6132C33.3333 37.2666 33.48 36.9199 33.72 36.6666C34.2133 36.1732 35.12 36.1732 35.6133 36.6666C35.8533 36.9199 36 37.2666 36 37.6132C36 37.9599 35.8533 38.3066 35.6133 38.5599ZM35.6133 33.8932C35.5467 33.9466 35.48 33.9999 35.4133 34.0532C35.3333 34.1066 35.2533 34.1466 35.1733 34.1732C35.0933 34.2132 35.0133 34.2399 34.9333 34.2532C34.84 34.2666 34.7467 34.2799 34.6667 34.2799C34.32 34.2799 33.9733 34.1332 33.72 33.8932C33.48 33.6399 33.3333 33.2932 33.3333 32.9466C33.3333 32.5999 33.48 32.2532 33.72 31.9999C33.8533 31.8799 33.9867 31.7866 34.16 31.7199C34.4 31.6132 34.6667 31.5866 34.9333 31.6399C35.0133 31.6532 35.0933 31.6799 35.1733 31.7199C35.2533 31.7466 35.3333 31.7866 35.4133 31.8399C35.48 31.8932 35.5467 31.9466 35.6133 31.9999C35.8533 32.2532 36 32.5999 36 32.9466C36 33.2932 35.8533 33.6399 35.6133 33.8932Z" fill="#7D7D7D"/>
</svg>
