<svg width="32" height="33" viewBox="0 0 32 33" fill="none" xmlns="http://www.w3.org/2000/svg">
<path d="M9.81034 12.3208C9.46847 12.3208 9.19141 12.0437 9.19141 11.7019V5.80937C9.19141 5.46749 9.46853 5.19043 9.81034 5.19043C10.1522 5.19043 10.4293 5.46755 10.4293 5.80937V11.7018C10.4293 12.0437 10.1522 12.3208 9.81034 12.3208ZM16.1547 12.3208C15.8128 12.3208 15.5357 12.0437 15.5357 11.7019V5.80937C15.5357 5.46749 15.8128 5.19043 16.1547 5.19043C16.4965 5.19043 16.7736 5.46755 16.7736 5.80937V11.7018C16.7736 12.0437 16.4965 12.3208 16.1547 12.3208ZM22.499 12.3208C22.1572 12.3208 21.88 12.0437 21.88 11.7019V5.80937C21.88 5.46749 22.1572 5.19043 22.499 5.19043C22.8408 5.19043 23.1179 5.46755 23.1179 5.80937V11.7018C23.1179 12.0437 22.8408 12.3208 22.499 12.3208Z" fill="#FF8C21"/>
<path d="M23.7683 5.38892C23.7683 6.59586 23.2001 7.04773 22.4994 7.04773C21.7987 7.04773 21.2306 6.59592 21.2306 5.38892C21.2306 4.18136 22.4994 2.2168 22.4994 2.2168C22.4994 2.2168 23.7683 4.18136 23.7683 5.38892ZM17.4241 5.38892C17.4241 6.59586 16.8559 7.04773 16.1552 7.04773C15.4545 7.04773 14.8863 6.59592 14.8863 5.38892C14.8863 4.18136 16.1552 2.2168 16.1552 2.2168C16.1552 2.2168 17.4241 4.18136 17.4241 5.38892ZM11.0797 5.38892C11.0797 6.59586 10.5116 7.04773 9.81087 7.04773C9.11018 7.04773 8.54199 6.59592 8.54199 5.38892C8.54199 4.18136 9.81087 2.2168 9.81087 2.2168C9.81087 2.2168 11.0797 4.18136 11.0797 5.38892Z" fill="#FF8C21"/>
<path d="M28.5256 23.1921V30.7637H3.78223V23.1921C5.58585 23.3121 5.69173 24.451 7.69466 24.451C9.80966 24.451 9.80966 23.1821 11.924 23.1821C14.039 23.1821 14.039 24.451 16.1533 24.451C18.2683 24.451 18.2683 23.1821 20.3832 23.1821C22.4976 23.1821 22.4976 24.451 24.6125 24.451C26.6155 24.451 26.7214 23.3121 28.5256 23.1921ZM25.7762 13.0789V19.344H6.5316V13.0789C7.71754 13.3104 7.89148 14.3001 9.38623 14.3001C11.0779 14.3001 11.0779 13.0312 12.77 13.0312C14.4617 13.0312 14.4617 14.3001 16.1532 14.3001C17.8455 14.3001 17.8455 13.0312 19.5364 13.0312C21.2287 13.0312 21.2287 14.3001 22.9209 14.3001C24.4157 14.3001 24.5897 13.3092 25.7762 13.0789Z" fill="#C8D7FF"/>
<path d="M25.7762 11.8875V14.3181C24.5896 14.5484 24.4157 15.5393 22.9209 15.5393C21.2287 15.5393 21.2287 14.2704 19.5365 14.2704C17.8455 14.2704 17.8455 15.5393 16.1533 15.5393C14.4617 15.5393 14.4617 14.2704 12.7701 14.2704C11.0779 14.2704 11.0779 15.5393 9.38629 15.5393C7.89154 15.5393 7.7176 14.5496 6.53166 14.3181V11.8875C6.53166 11.1014 7.16916 10.4639 7.95585 10.4639H9.8096H16.1539H22.4982H24.352C25.1387 10.4639 25.7762 11.1014 25.7762 11.8875ZM28.5256 21.1767V24.4312C26.7214 24.5513 26.6155 25.6902 24.6125 25.6902C22.4975 25.6902 22.4975 24.4213 20.3832 24.4213C18.2682 24.4213 18.2682 25.6902 16.1533 25.6902C14.0389 25.6902 14.0389 24.4213 11.924 24.4213C9.8096 24.4213 9.8096 25.6902 7.69466 25.6902C5.69173 25.6902 5.58585 24.5513 3.78223 24.4312V21.1767C3.78223 20.1654 4.60235 19.3452 5.61373 19.3452H6.53166H25.7762H26.6942C27.7055 19.3452 28.5256 20.1654 28.5256 21.1767Z" fill="#0044F1"/>
<path d="M32 30.7654C32 31.1071 31.7227 31.3844 31.3811 31.3844H0.618937C0.27725 31.3844 0 31.107 0 30.7654C0 30.4238 0.277312 30.1465 0.618937 30.1465H31.381C31.7227 30.1465 32 30.4237 32 30.7654Z" fill="#A0A0A0"/>
</svg>
