<svg width="19" height="19" viewBox="0 0 19 19" fill="none" xmlns="http://www.w3.org/2000/svg">
<g clip-path="url(#clip0_480_1738)">
<path d="M18.5 9.5C18.5 4.52944 14.4706 0.5 9.5 0.5C4.52944 0.5 0.5 4.52944 0.5 9.5C0.5 13.9922 3.79117 17.7155 8.09375 18.3906V12.1016H5.80859V9.5H8.09375V7.51719C8.09375 5.26156 9.4374 4.01562 11.4932 4.01562C12.4779 4.01562 13.5078 4.19141 13.5078 4.19141V6.40625H12.3729C11.2549 6.40625 10.9062 7.1 10.9062 7.81175V9.5H13.4023L13.0033 12.1016H10.9062V18.3906C15.2088 17.7155 18.5 13.9922 18.5 9.5Z" fill="#1877F2"/>
</g>
<defs>
<clipPath id="clip0_480_1738">
<rect width="18" height="18" fill="white" transform="translate(0.5 0.5)"/>
</clipPath>
</defs>
</svg>
