<svg width="41" height="41" viewBox="0 0 41 41" fill="none" xmlns="http://www.w3.org/2000/svg">
<path opacity="0.4" d="M27.6079 4.10352H13.6579C7.59127 4.10352 3.97461 7.72018 3.97461 13.7868V27.7368C3.97461 33.8035 7.59127 37.4202 13.6579 37.4202H27.6079C33.6746 37.4202 37.2913 33.8035 37.2913 27.7368V13.7868C37.2913 7.72018 33.6746 4.10352 27.6079 4.10352Z" fill="white"/>
<path d="M23.8232 16.2365L23.9065 21.1532L28.2898 21.0865C28.6065 21.0865 28.8398 21.3699 28.7898 21.6699L28.2065 24.8532C28.1565 25.0865 27.9565 25.2532 27.7232 25.2699L23.9732 25.3365L24.1732 37.4199L19.1732 37.5032L18.9732 25.4199L16.1398 25.4699C15.8565 25.4699 15.6398 25.2532 15.6398 24.9699L15.5898 21.8032C15.5898 21.5199 15.8065 21.3032 16.0898 21.3032L18.9232 21.2532L18.8398 15.8365C18.7898 13.0699 20.9898 10.8032 23.7565 10.7532L28.2565 10.6865C28.5398 10.6865 28.7565 10.9032 28.7565 11.1865L28.8232 15.1865C28.8232 15.4699 28.6065 15.6865 28.3231 15.6865L24.3232 15.7532C24.0398 15.7365 23.8232 15.9699 23.8232 16.2365Z" fill="white"/>
</svg>
