<svg width="18" height="19" viewBox="0 0 18 19" fill="none" xmlns="http://www.w3.org/2000/svg">
<g clip-path="url(#clip0_480_4522)">
<path d="M3.98918 11.3777L3.36263 13.7167L1.07258 13.7652C0.388195 12.4958 0 11.0435 0 9.5001C0 8.00768 0.362953 6.60031 1.00631 5.36108H1.0068L3.04559 5.73486L3.9387 7.76141C3.75177 8.30637 3.64989 8.89137 3.64989 9.5001C3.64996 10.1608 3.76963 10.7937 3.98918 11.3777Z" fill="#FBBB00"/>
<path d="M17.8431 7.8186C17.9465 8.36303 18.0004 8.92529 18.0004 9.49992C18.0004 10.1443 17.9326 10.7728 17.8036 11.3791C17.3655 13.4421 16.2207 15.2436 14.6348 16.5184L14.6343 16.5179L12.0664 16.3869L11.7029 14.1181C12.7552 13.501 13.5776 12.5352 14.0108 11.3791H9.19824V7.8186H17.8431Z" fill="#518EF8"/>
<path d="M14.6336 16.5181L14.6341 16.5185C13.0917 17.7583 11.1325 18.5 8.99968 18.5C5.57227 18.5 2.59239 16.5843 1.07227 13.7651L3.98886 11.3777C4.74891 13.4061 6.70567 14.8501 8.99968 14.8501C9.98571 14.8501 10.9095 14.5835 11.7021 14.1182L14.6336 16.5181Z" fill="#28B446"/>
<path d="M14.7442 2.57197L11.8286 4.95894C11.0082 4.44615 10.0385 4.14992 8.99955 4.14992C6.65361 4.14992 4.66025 5.66013 3.93828 7.76131L1.00635 5.36098H1.00586C2.50373 2.47307 5.52119 0.5 8.99955 0.5C11.1833 0.5 13.1855 1.27787 14.7442 2.57197Z" fill="#F14336"/>
</g>
<defs>
<clipPath id="clip0_480_4522">
<rect width="18" height="18" fill="white" transform="translate(0 0.5)"/>
</clipPath>
</defs>
</svg>
