<svg width="44" height="44" viewBox="0 0 44 44" fill="none" xmlns="http://www.w3.org/2000/svg">
<rect width="44" height="44" rx="22" fill="#0044F1" fill-opacity="0.05"/>
<path d="M26.44 13.1001C24.63 13.1001 23.01 13.9801 22 15.3301C20.99 13.9801 19.37 13.1001 17.56 13.1001C14.49 13.1001 12 15.6001 12 18.6901C12 19.8801 12.19 20.9801 12.52 22.0001C14.1 27.0001 18.97 29.9901 21.38 30.8101C21.72 30.9301 22.28 30.9301 22.62 30.8101C25.03 29.9901 29.9 27.0001 31.48 22.0001C31.81 20.9801 32 19.8801 32 18.6901C32 15.6001 29.51 13.1001 26.44 13.1001Z" fill="#0044F1"/>
</svg>
