<svg width="25" height="24" viewBox="0 0 25 24" fill="none" xmlns="http://www.w3.org/2000/svg">
<path d="M20.2902 6.82006L14.5302 2.79006C12.9602 1.69006 10.5502 1.75006 9.04023 2.92006L4.03023 6.83006C3.03023 7.61006 2.24023 9.21006 2.24023 10.4701V17.3701C2.24023 19.9201 4.31023 22.0001 6.86023 22.0001H17.6402C20.1902 22.0001 22.2602 19.9301 22.2602 17.3801V10.6001C22.2602 9.25006 21.3902 7.59006 20.2902 6.82006ZM13.0002 18.0001C13.0002 18.4101 12.6602 18.7501 12.2502 18.7501C11.8402 18.7501 11.5002 18.4101 11.5002 18.0001V15.0001C11.5002 14.5901 11.8402 14.2501 12.2502 14.2501C12.6602 14.2501 13.0002 14.5901 13.0002 15.0001V18.0001Z" fill="#7D7D7D"/>
</svg>
