<svg width="41" height="41" viewBox="0 0 41 41" fill="none" xmlns="http://www.w3.org/2000/svg">
<path opacity="0.4" d="M27.607 4.10352H13.6404C7.5737 4.10352 3.95703 7.72018 3.95703 13.7868V27.7368C3.95703 33.8202 7.5737 37.4368 13.6404 37.4368H27.5904C33.657 37.4368 37.2737 33.8202 37.2737 27.7535V13.7868C37.2904 7.72018 33.6737 4.10352 27.607 4.10352Z" fill="white"/>
<path d="M20.6249 27.237C24.1963 27.237 27.0915 24.3418 27.0915 20.7704C27.0915 17.1989 24.1963 14.3037 20.6249 14.3037C17.0534 14.3037 14.1582 17.1989 14.1582 20.7704C14.1582 24.3418 17.0534 27.237 20.6249 27.237Z" fill="white"/>
<path d="M28.9596 13.2694C28.5096 13.2694 28.093 13.1027 27.7763 12.786C27.6263 12.6194 27.5096 12.436 27.4263 12.236C27.343 12.036 27.293 11.8194 27.293 11.6027C27.293 11.386 27.343 11.1694 27.4263 10.9694C27.5096 10.7527 27.6263 10.586 27.7763 10.4194C28.1596 10.036 28.743 9.8527 29.2763 9.96937C29.393 9.98604 29.493 10.0194 29.593 10.0694C29.693 10.1027 29.793 10.1527 29.893 10.2194C29.9763 10.2694 30.0596 10.3527 30.143 10.4194C30.293 10.586 30.4096 10.7527 30.493 10.9694C30.5763 11.1694 30.6263 11.386 30.6263 11.6027C30.6263 11.8194 30.5763 12.036 30.493 12.236C30.4096 12.436 30.293 12.6194 30.143 12.786C29.9763 12.936 29.793 13.0527 29.593 13.136C29.393 13.2194 29.1763 13.2694 28.9596 13.2694Z" fill="white"/>
</svg>
