<svg width="35" height="35" viewBox="0 0 35 35" fill="none" xmlns="http://www.w3.org/2000/svg">
<path d="M26.7997 0.894531H8.20034C4.01659 0.894531 0.625 4.28613 0.625 8.46987V27.0692C0.625 31.2529 4.01659 34.6445 8.20034 34.6445H26.7997C30.9834 34.6445 34.375 31.2529 34.375 27.0692V8.46987C34.375 4.28613 30.9834 0.894531 26.7997 0.894531Z" fill="#769AF7"/>
<path d="M9.976 14.9238H13.4831V26.2401H9.976V14.9238ZM11.7646 9.30078C12.1664 9.30079 12.5592 9.4198 12.8935 9.6428C13.2277 9.8658 13.4885 10.1828 13.6428 10.5538C13.7971 10.9248 13.838 11.3332 13.7605 11.7275C13.6829 12.1217 13.4904 12.4842 13.207 12.7691C12.9237 13.054 12.5624 13.2487 12.1686 13.3285C11.7748 13.4083 11.3661 13.3697 10.9943 13.2175C10.6224 13.0653 10.3039 12.8065 10.079 12.4735C9.85407 12.1405 9.73281 11.7484 9.7305 11.3466C9.72896 11.0785 9.78044 10.8127 9.88197 10.5646C9.98351 10.3164 10.1331 10.0908 10.3221 9.90069C10.5112 9.71056 10.7359 9.55968 10.9835 9.45673C11.231 9.35378 11.4965 9.30078 11.7646 9.30078ZM15.7276 14.9238H19.1062V16.467C19.4443 15.8898 19.9329 15.4153 20.5197 15.0941C21.1065 14.7729 21.7695 14.6171 22.4379 14.6433C25.945 14.6433 26.6581 16.9813 26.6581 20.0325V26.2401H23.151V20.769C23.151 19.4597 23.151 17.7646 21.3273 17.7646C19.5036 17.7646 19.2231 19.1908 19.2231 20.6638V26.2635H15.716L15.7276 14.9238Z" fill="white"/>
</svg>
