<svg width="57" height="48" viewBox="0 0 57 48" fill="none" xmlns="http://www.w3.org/2000/svg">
<g clip-path="url(#clip0_56_404)" filter="url(#filter0_d_56_404)">
<path d="M49.1432 31.5362L48.6932 29.2862H43.6652L42.8652 31.5202L38.8352 31.5282C41.4252 25.3022 43.3492 20.6922 44.6032 17.6942C44.9312 16.9102 45.5132 16.5102 46.3712 16.5162C47.0272 16.5222 48.0972 16.5222 49.5832 16.5182L52.6992 31.5302L49.1432 31.5362ZM44.7952 26.2042H48.0372L46.8272 20.5642L44.7952 26.2042ZM18.8232 16.5142L22.8752 16.5182L16.6112 31.5382L12.5092 31.5342C11.4777 27.5669 10.459 23.5962 9.45322 19.6222C9.25322 18.8302 8.85722 18.2762 8.09522 18.0142C6.9683 17.6378 5.83619 17.2771 4.69922 16.9322L4.69922 16.5182H11.1732C12.2932 16.5182 12.9472 17.0602 13.1572 18.1722C13.3692 19.2862 13.9012 22.1242 14.7572 26.6802L18.8232 16.5142ZM28.4432 16.5182L25.2412 31.5362L21.3832 31.5302L24.5792 16.5142L28.4432 16.5182ZM36.2632 16.2402C37.4172 16.2402 38.8712 16.6002 39.7072 16.9322L39.0312 20.0442C38.2752 19.7402 37.0312 19.3302 35.9852 19.3442C34.4652 19.3702 33.5252 20.0082 33.5252 20.6202C33.5252 21.6162 35.1572 22.1182 36.8372 23.2062C38.7532 24.4462 39.0072 25.5602 38.9832 26.7722C38.9572 29.2822 36.8372 31.7602 32.3652 31.7602C30.3252 31.7302 29.5892 31.5602 27.9252 30.9682L28.6292 27.7202C30.3232 28.4282 31.0412 28.6542 32.4892 28.6542C33.8152 28.6542 34.9532 28.1182 34.9632 27.1842C34.9712 26.5202 34.5632 26.1902 33.0752 25.3702C31.5872 24.5482 29.4992 23.4122 29.5272 21.1262C29.5612 18.2022 32.3312 16.2402 36.2632 16.2402Z" fill="#A0A0A0"/>
</g>
<defs>
<filter id="filter0_d_56_404" x="0.699219" y="0" width="56" height="56" filterUnits="userSpaceOnUse" color-interpolation-filters="sRGB">
<feFlood flood-opacity="0" result="BackgroundImageFix"/>
<feColorMatrix in="SourceAlpha" type="matrix" values="0 0 0 0 0 0 0 0 0 0 0 0 0 0 0 0 0 0 127 0" result="hardAlpha"/>
<feOffset dy="4"/>
<feGaussianBlur stdDeviation="2"/>
<feComposite in2="hardAlpha" operator="out"/>
<feColorMatrix type="matrix" values="0 0 0 0 0 0 0 0 0 0 0 0 0 0 0 0 0 0 0.25 0"/>
<feBlend mode="normal" in2="BackgroundImageFix" result="effect1_dropShadow_56_404"/>
<feBlend mode="normal" in="SourceGraphic" in2="effect1_dropShadow_56_404" result="shape"/>
</filter>
<clipPath id="clip0_56_404">
<rect width="48" height="48" fill="white" transform="translate(4.69922)"/>
</clipPath>
</defs>
</svg>
