<svg width="126" height="48" viewBox="0 0 126 48" fill="none" xmlns="http://www.w3.org/2000/svg">
<g clip-path="url(#clip0_56_408)">
<path d="M7.00821 10.2853C4.45263 11.3551 1.6432 14.3772 0.755894 18.1706C-0.367813 22.977 4.30846 25.0094 4.69201 24.343C5.14344 23.56 3.85408 23.2952 3.58867 20.8014C3.24565 17.5805 4.74305 13.9814 6.62759 12.4023C6.97789 12.1089 6.96123 12.5172 6.96123 13.2726C6.96123 14.6233 6.88659 26.7485 6.88659 29.2791C6.88659 32.7032 6.74516 33.7845 6.49116 34.853C6.23379 35.9357 5.82003 36.6673 6.13356 36.9492C6.48384 37.2644 7.97943 36.5146 8.84525 35.3062C9.8835 33.8568 10.2469 32.1163 10.3122 30.2261C10.391 27.9476 10.3876 24.3319 10.391 22.2696C10.3941 20.3782 10.4229 14.8396 10.3578 11.51C10.3419 10.6933 8.07696 9.83649 7.00808 10.2843L7.00821 10.2853ZM97.7565 26.3101C97.6741 28.0903 97.2801 29.4817 96.791 30.4631C95.8443 32.3631 93.8797 32.9531 93.0455 30.2218C92.591 28.7329 92.5697 26.2464 92.8965 24.1687C93.2292 22.0522 94.1581 20.4537 95.6963 20.5978C97.2135 20.7403 97.9236 22.6954 97.7565 26.3101ZM72.1799 37.3545C72.1593 40.3123 71.6938 42.9057 70.6955 43.6589C69.2797 44.727 67.3766 43.9258 67.7707 41.7675C68.1194 39.8576 69.7683 37.907 72.1839 35.5238C72.1839 35.5238 72.1889 36.0673 72.1799 37.3545ZM71.7932 26.2929C71.7066 27.9142 71.2863 29.543 70.8277 30.4633C69.8811 32.3633 67.9022 32.9573 67.0822 30.222C66.5215 28.3531 66.6558 25.9343 66.9332 24.4102C67.2932 22.4328 68.1658 20.5983 69.733 20.5983C71.2566 20.5983 72.008 22.2698 71.7932 26.2929ZM56.9766 26.2681C56.8837 27.9853 56.5487 29.4207 56.0111 30.4633C55.0385 32.3503 53.1143 32.9487 52.2656 30.222C51.6538 28.2558 51.8621 25.5749 52.1166 24.1267C52.4943 21.9776 53.44 20.4539 54.9164 20.5983C56.4329 20.7464 57.1702 22.6954 56.9766 26.2681ZM124.878 28.2738C124.507 28.2738 124.338 28.656 124.198 29.2992C123.712 31.5357 123.202 32.0407 122.544 32.0407C121.809 32.0407 121.148 30.9333 120.979 28.7164C120.845 26.9732 120.866 23.764 121.037 20.5716C121.072 19.9157 120.891 19.2667 119.132 18.6276C118.375 18.3527 117.274 17.9479 116.727 19.2705C115.178 23.0069 114.573 25.9734 114.43 27.1785C114.423 27.2408 114.346 27.2536 114.333 27.1078C114.242 26.1427 114.039 24.3888 114.014 20.7038C114.009 19.9848 113.857 19.3728 113.063 18.8718C112.548 18.5467 110.985 17.9717 110.422 18.6558C109.934 19.2152 109.369 20.7208 108.782 22.5055C108.305 23.956 107.973 24.9373 107.973 24.9373C107.973 24.9373 107.979 21.0235 107.985 19.5389C107.987 18.9788 107.603 18.7922 107.487 18.7583C106.966 18.607 105.939 18.3542 105.502 18.3542C104.964 18.3542 104.833 18.6549 104.833 19.0931C104.833 19.1505 104.748 24.2461 104.748 27.8091C104.748 27.9639 104.748 28.1328 104.749 28.3121C104.452 29.9498 103.487 32.1728 102.437 32.1728C101.386 32.1728 100.891 31.2434 100.891 26.9957C100.891 24.5177 100.965 23.4402 101.002 21.6479C101.023 20.6156 101.064 19.8229 101.061 19.643C101.054 19.0913 100.1 18.8133 99.6559 18.7105C99.2099 18.6069 98.8223 18.5667 98.5197 18.584C98.0914 18.6081 97.7884 18.8891 97.7884 19.2756C97.7884 19.4828 97.7907 19.8769 97.7907 19.8769C97.2391 19.01 96.3518 18.4066 95.7614 18.2318C94.1713 17.7595 92.5121 18.1779 91.2606 19.9292C90.2659 21.3207 89.6663 22.8967 89.4303 25.161C89.2578 26.8163 89.3141 28.495 89.6207 29.9146C89.2502 31.5165 88.5623 32.1728 87.8091 32.1728C86.7157 32.1728 85.9229 30.388 86.015 27.3013C86.0757 25.271 86.4819 23.8462 86.926 21.7849C87.1154 20.9063 86.9615 20.4462 86.5757 20.0053C86.2218 19.601 85.4677 19.3944 84.3837 19.6485C83.6116 19.8296 82.5076 20.0244 81.4976 20.1741C81.4976 20.1741 81.5585 19.9309 81.6085 19.5022C81.8712 17.2539 79.4281 17.4363 78.6486 18.1544C78.1833 18.5831 77.8666 19.0888 77.7464 19.998C77.5558 21.4407 78.7325 22.1212 78.7325 22.1212C78.3464 23.8885 77.4 26.1971 76.423 27.8662C75.8997 28.7604 75.4993 29.4231 74.9826 30.1275C74.9807 29.8652 74.9792 29.6029 74.9783 29.3419C74.9665 25.6264 75.0159 22.7022 75.0378 21.6483C75.059 20.616 75.1004 19.8443 75.0981 19.6644C75.0922 19.2609 74.8566 19.1085 74.3665 18.9156C73.9332 18.7449 73.4208 18.6268 72.8893 18.5856C72.2184 18.5333 71.8143 18.8891 71.8248 19.3098C71.8269 19.3893 71.8269 19.8771 71.8269 19.8771C71.2752 19.0101 70.3879 18.4068 69.7975 18.2319C68.2075 17.7599 66.5482 18.1783 65.2967 19.9294C64.3022 21.3209 63.6509 23.2735 63.4664 25.1439C63.2945 26.8872 63.3262 28.3686 63.5606 29.6165C63.3078 30.8662 62.5808 32.173 61.7589 32.173C60.7081 32.173 60.1101 31.2436 60.1101 26.9958C60.1101 24.5178 60.1845 23.4403 60.2211 21.6483C60.2423 20.616 60.2833 19.823 60.281 19.6433C60.2733 19.0917 59.3193 18.8136 58.8754 18.7107C58.411 18.6033 58.01 18.5638 57.7021 18.5864C57.2959 18.6167 57.0103 18.9805 57.0103 19.2518V19.8771C56.4586 19.0101 55.5713 18.4068 54.9809 18.2319C53.3909 17.7599 51.7409 18.185 50.4801 19.9294C49.658 21.0668 48.9924 22.3277 48.6498 25.1191C48.5508 25.9258 48.5071 26.6811 48.5128 27.3872C48.1849 29.3922 46.7369 31.703 45.5525 31.703C44.8594 31.703 44.1992 30.3587 44.1992 27.4935C44.1992 23.677 44.4355 18.243 44.4754 17.7193C44.4754 17.7193 45.9719 17.6939 46.2618 17.6905C47.0083 17.6823 47.6844 17.7 48.6786 17.6491C49.1773 17.6237 49.6578 15.834 49.1431 15.6125C48.9098 15.5122 47.2611 15.4244 46.6075 15.4105C46.0579 15.398 44.5279 15.2848 44.5279 15.2848C44.5279 15.2848 44.6652 11.678 44.6971 11.297C44.7242 10.9794 44.3134 10.8159 44.0778 10.7167C43.5049 10.4744 42.9923 10.3584 42.3847 10.2332C41.5453 10.06 41.1645 10.2294 41.0901 10.9378C40.9781 12.013 40.9201 15.1623 40.9201 15.1623C40.3041 15.1623 38.2 15.0419 37.5838 15.0419C37.0113 15.0419 36.3934 17.5039 37.1849 17.5342C38.0955 17.5695 39.6825 17.6 40.7345 17.6317C40.7345 17.6317 40.6877 23.1551 40.6877 24.8604C40.6877 25.0418 40.6892 25.2165 40.6896 25.3861C40.1105 28.404 38.0712 30.0342 38.0712 30.0342C38.5091 28.0377 37.6145 26.5384 36.003 25.2692C35.4092 24.8015 34.2372 23.9161 32.9258 22.9459C32.9258 22.9459 33.6853 22.1973 34.3589 20.6913C34.8361 19.6245 34.8567 18.4036 33.6853 18.1344C31.7497 17.6893 30.1537 19.1108 29.6777 20.6284C29.3089 21.8041 29.5056 22.6764 30.2281 23.5826C30.2809 23.6489 30.3381 23.7165 30.3971 23.7846C29.9602 24.6268 29.36 25.7606 28.8516 26.6399C27.4405 29.0811 26.3746 31.0121 25.5691 31.0121C24.9251 31.0121 24.9338 29.0516 24.9338 27.2161C24.9338 25.6338 25.0506 23.2548 25.1439 20.7917C25.1748 19.9771 24.7675 19.5131 24.0847 19.0928C23.6698 18.8374 22.7844 18.3353 22.2716 18.3353C21.5041 18.3353 19.2897 18.4398 17.1973 24.4922C16.9336 25.2551 16.4156 26.6451 16.4156 26.6451L16.4602 19.3668C16.4602 19.1962 16.3693 19.0312 16.1612 18.9183C15.8086 18.7269 14.8669 18.3353 14.0295 18.3353C13.6305 18.3353 13.4314 18.5209 13.4314 18.8908L13.3584 30.2778C13.3584 31.143 13.381 32.1523 13.4665 32.5937C13.5517 33.0357 13.6898 33.3953 13.8608 33.6093C14.0316 33.8228 14.2291 33.9857 14.5547 34.0529C14.8578 34.1153 16.5175 34.3284 16.6038 33.6941C16.7072 32.934 16.7111 32.1119 17.5826 29.0456C18.9394 24.2718 20.7084 21.9426 21.54 21.1154C21.6854 20.9708 21.8514 20.9621 21.8434 21.1988C21.8079 22.2454 21.6831 24.8606 21.599 27.0825C21.3737 33.0284 22.4554 34.1304 24.0012 34.1304C25.1837 34.1304 26.8507 32.9554 28.6377 29.981C29.7518 28.1274 30.8335 26.3099 31.6107 25C32.1523 25.5013 32.7601 26.041 33.3674 26.6174C34.7789 27.957 35.2423 29.2299 34.9348 30.4375C34.6996 31.3607 33.814 32.312 32.2378 31.3873C31.7784 31.1176 31.5823 30.9091 31.1204 30.605C30.8722 30.4416 30.4932 30.3928 30.2661 30.5639C29.6759 31.0089 29.3384 31.5748 29.1457 32.2755C28.9582 32.9573 29.641 33.3177 30.3489 33.6329C30.9583 33.9043 32.2683 34.1501 33.1037 34.1781C36.3587 34.287 38.9661 32.6065 40.7813 28.2717C41.1062 32.0154 42.4891 34.1338 44.8916 34.1338C46.4979 34.1338 48.1083 32.0575 48.8126 30.015C49.0148 30.8476 49.314 31.5716 49.7005 32.1839C51.5518 35.1171 55.1433 34.4858 56.9473 31.995C57.5051 31.2254 57.59 30.9488 57.59 30.9488C57.8531 33.3007 59.7471 34.1225 60.8315 34.1225C62.0461 34.1225 63.3001 33.5483 64.179 31.5696C64.282 31.7844 64.3944 31.9894 64.5171 32.1838C66.3684 35.1171 69.9599 34.4857 71.7639 31.995C71.849 31.8781 71.9228 31.7721 71.9873 31.677L72.0403 33.2218C72.0403 33.2218 71.0111 34.1659 70.3794 34.7451C67.5989 37.296 65.4847 39.2314 65.3292 41.4852C65.1295 44.3589 67.4602 45.427 69.2235 45.5669C71.096 45.7155 72.6995 44.6811 73.6852 43.2335C74.5521 41.9593 75.1196 39.2169 75.0779 36.5084C75.0613 35.4237 75.034 34.0446 75.0126 32.5664C75.9898 31.4315 77.0909 29.9971 78.1047 28.3182C79.2095 26.4884 80.3935 24.0313 80.9999 22.119C80.9999 22.119 82.0286 22.1279 83.1265 22.056C83.4777 22.0331 83.5785 22.1047 83.5136 22.3622C83.4352 22.6732 82.1265 27.7209 83.3209 31.0835C84.1384 33.3854 85.9813 34.126 87.0739 34.126C88.353 34.126 89.5766 33.16 90.2323 31.7257C90.3113 31.8856 90.3939 32.0404 90.484 32.1832C92.3353 35.1164 95.9142 34.4813 97.7308 31.9943C98.1408 31.4332 98.3735 30.9481 98.3735 30.9481C98.7633 33.3822 100.656 34.1342 101.74 34.1342C102.87 34.1342 103.942 33.6711 104.811 31.6135C104.848 32.5195 104.905 33.2603 104.995 33.4939C105.05 33.6367 105.371 33.816 105.605 33.9026C106.638 34.2857 107.692 34.1045 108.081 34.0257C108.352 33.9711 108.562 33.7544 108.591 33.1949C108.667 31.7259 108.62 29.2578 109.065 27.4235C109.813 24.345 110.51 23.1509 110.841 22.5597C111.026 22.2285 111.235 22.1739 111.243 22.5244C111.258 23.2337 111.294 25.3166 111.583 28.1151C111.796 30.1733 112.08 31.3899 112.298 31.7749C112.921 32.8759 113.691 32.9281 114.318 32.9281C114.716 32.9281 115.55 32.8179 115.476 32.1172C115.439 31.7757 115.503 29.6651 116.24 26.6322C116.721 24.6517 117.524 22.8621 117.813 22.2079C117.92 21.9666 117.969 22.1568 117.968 22.1939C117.907 23.5578 117.77 28.0191 118.326 30.4591C119.079 33.7645 121.258 34.1344 122.017 34.1344C123.638 34.1344 124.964 32.9014 125.41 29.6569C125.518 28.8761 125.359 28.2732 124.881 28.2732" fill="#A0A0A0"/>
</g>
<defs>
<clipPath id="clip0_56_408">
<rect width="125" height="48" fill="white" transform="translate(0.582031)"/>
</clipPath>
</defs>
</svg>
