<svg width="224" height="48" viewBox="0 0 224 48" fill="none" xmlns="http://www.w3.org/2000/svg">
<g clip-path="url(#clip0_56_412)">
<path d="M224 21.5773V17.6479H219.12V11.5396L218.956 11.5898L214.373 12.9923L214.283 13.0198V17.6479H207.05V15.0698C207.05 13.8694 207.318 12.9504 207.847 12.3382C208.373 11.7325 209.124 11.4249 210.082 11.4249C210.772 11.4249 211.485 11.5872 212.203 11.9071L212.383 11.9874V7.84976L212.298 7.81921C211.628 7.5779 210.717 7.45703 209.588 7.45703C208.165 7.45703 206.872 7.76641 205.744 8.38038C204.633 8.97813 203.717 9.88347 203.106 10.9881C202.487 12.1026 202.172 13.3894 202.172 14.8137V17.6483H198.775V21.5778H202.172V38.1303H207.05V21.5773H214.283V32.0963C214.283 36.4285 216.326 38.6243 220.357 38.6243C221.053 38.6202 221.747 38.543 222.428 38.3939C223.152 38.2381 223.645 38.0823 223.936 37.9161L224 37.8781V33.9125L223.802 34.0438C223.537 34.2205 223.207 34.3645 222.821 34.4714C222.432 34.5805 222.108 34.6355 221.857 34.6355C220.913 34.6355 220.215 34.3811 219.781 33.8788C219.343 33.3727 219.12 32.4864 219.12 31.2471V21.5773H224ZM187.883 34.6359C186.113 34.6359 184.717 34.0486 183.733 32.8927C182.744 31.7302 182.242 30.0738 182.242 27.9683C182.242 25.7965 182.744 24.0969 183.734 22.9139C184.718 21.7392 186.1 21.1427 187.843 21.1427C189.534 21.1427 190.88 21.7122 191.845 22.8367C192.814 23.9664 193.306 25.6525 193.306 27.8496C193.306 30.0738 192.843 31.7826 191.931 32.9254C191.026 34.0599 189.664 34.6359 187.883 34.6359ZM188.1 17.1543C184.723 17.1543 182.04 18.144 180.128 20.0959C178.216 22.0482 177.247 24.7493 177.247 28.1258C177.247 31.3327 178.193 33.912 180.059 35.7914C181.925 37.6713 184.464 38.6234 187.606 38.6234C190.88 38.6234 193.509 37.6202 195.421 35.6413C197.332 33.6646 198.301 30.9888 198.301 27.6908C198.301 24.4342 197.392 21.8356 195.599 19.9689C193.805 18.1012 191.281 17.1543 188.1 17.1543ZM169.383 17.1543C167.085 17.1543 165.185 17.7421 163.733 18.9007C162.273 20.0662 161.532 21.5952 161.532 23.445C161.532 24.4063 161.692 25.2602 162.007 25.9846C162.323 26.7116 162.813 27.3513 163.464 27.8884C164.11 28.4212 165.107 28.9794 166.429 29.5466C167.54 30.0039 168.368 30.391 168.894 30.6956C169.409 30.9945 169.774 31.2947 169.98 31.5871C170.18 31.8729 170.282 32.2647 170.282 32.7478C170.282 34.1241 169.252 34.7935 167.132 34.7935C166.345 34.7935 165.448 34.6294 164.465 34.3056C163.489 33.9866 162.568 33.5196 161.735 32.921L161.532 32.7762V37.4714L161.606 37.5063C162.297 37.8249 163.167 38.0932 164.192 38.3049C165.216 38.5161 166.145 38.6239 166.954 38.6239C169.446 38.6239 171.454 38.0335 172.919 36.8679C174.394 35.6941 175.141 34.1298 175.141 32.2154C175.141 30.8352 174.738 29.6509 173.945 28.6962C173.158 27.7493 171.791 26.8796 169.885 26.1111C168.367 25.5015 167.394 24.9958 166.993 24.6074C166.606 24.2322 166.409 23.7015 166.409 23.03C166.409 22.4339 166.652 21.957 167.15 21.5703C167.652 21.182 168.35 20.9843 169.225 20.9843C170.038 20.9843 170.869 21.1126 171.696 21.3639C172.523 21.6157 173.248 21.953 173.854 22.365L174.053 22.5011V18.0467L173.977 18.014C173.418 17.774 172.681 17.5689 171.786 17.4031C170.894 17.2381 170.086 17.1543 169.383 17.1543ZM148.817 34.6359C147.047 34.6359 145.651 34.0486 144.668 32.8927C143.678 31.7302 143.177 30.0738 143.177 27.9683C143.177 25.7965 143.678 24.0969 144.669 22.9139C145.652 21.7392 147.034 21.1427 148.778 21.1427C150.469 21.1427 151.815 21.7122 152.779 22.8367C153.748 23.9664 154.24 25.6525 154.24 27.8496C154.24 30.0738 153.778 31.7826 152.866 32.9254C151.96 34.0599 150.598 34.6359 148.817 34.6359ZM149.035 17.1543C145.656 17.1543 142.974 18.144 141.062 20.0959C139.151 22.0482 138.181 24.7493 138.181 28.1258C138.181 31.334 139.128 33.912 140.993 35.7914C142.859 37.6713 145.398 38.6234 148.541 38.6234C151.813 38.6234 154.444 37.6202 156.356 35.6413C158.267 33.6646 159.236 30.9888 159.236 27.6908C159.236 24.4342 158.327 21.8356 156.533 19.9689C154.738 18.1012 152.215 17.1543 149.035 17.1543ZM130.777 21.1951V17.6479H125.959V38.1295H130.777V27.6519C130.777 25.8703 131.181 24.4067 131.978 23.3014C132.765 22.2092 133.814 21.6554 135.094 21.6554C135.528 21.6554 136.015 21.727 136.542 21.8688C137.065 22.0093 137.443 22.1621 137.666 22.3226L137.869 22.4697V17.613L137.79 17.5794C137.342 17.3887 136.707 17.2927 135.904 17.2927C134.693 17.2927 133.61 17.6815 132.682 18.4473C131.867 19.1206 131.278 20.0439 130.828 21.1951H130.777ZM117.332 17.1543C115.121 17.1543 113.149 17.6287 111.473 18.5629C109.793 19.4989 108.493 20.8364 107.609 22.536C106.728 24.2322 106.282 26.2132 106.282 28.4226C106.282 30.3574 106.715 32.1334 107.571 33.6982C108.428 35.266 109.641 36.4927 111.176 37.3436C112.71 38.1932 114.482 38.6239 116.443 38.6239C118.733 38.6239 120.688 38.1661 122.255 37.2637L122.318 37.2271V32.8132L122.116 32.9612C121.395 33.4838 120.601 33.8973 119.759 34.1882C118.907 34.4854 118.131 34.6355 117.451 34.6355C115.56 34.6355 114.043 34.0442 112.941 32.8783C111.837 31.7101 111.277 30.0707 111.277 28.0071C111.277 25.9309 111.861 24.2492 113.011 23.0077C114.158 21.7706 115.679 21.1431 117.53 21.1431C119.114 21.1431 120.657 21.6794 122.116 22.7385L122.318 22.8851V18.2343L122.253 18.1977C121.703 17.89 120.955 17.6361 120.024 17.4437C119.098 17.2516 118.193 17.1543 117.332 17.1543ZM102.963 17.6479H98.1451V38.1295H102.963V17.6479ZM100.604 8.92278C99.8107 8.92278 99.1191 9.19289 98.5509 9.72743C97.9801 10.2642 97.6904 10.9396 97.6904 11.7364C97.6904 12.521 97.9767 13.1839 98.5413 13.7062C99.1029 14.2268 99.7967 14.4908 100.604 14.4908C101.41 14.4908 102.106 14.2268 102.675 13.7071C103.246 13.1839 103.536 12.521 103.536 11.7364C103.536 10.9676 103.254 10.2986 102.698 9.74925C102.143 9.20074 101.437 8.92278 100.604 8.92278ZM88.5826 16.1372V38.129H93.4996V9.54983H86.6945L78.0444 30.7776L69.6505 9.54983H62.5684V38.1295H67.189V16.135H67.3479L76.2117 38.1295H79.6983L88.4238 16.1367L88.5826 16.1372Z" fill="#A0A0A0"/>
<path d="M23.2463 22.6643H0.582031V0H23.2463V22.6643Z" fill="#A0A0A0"/>
<path d="M48.2707 22.6643H25.6064V0H48.2707V22.6643Z" fill="#A0A0A0"/>
<path d="M23.2459 47.6975H0.582031V25.0332H23.2459V47.6975Z" fill="#A0A0A0"/>
<path d="M48.2707 47.6975H25.6064V25.0332H48.2707V47.6975Z" fill="#A0A0A0"/>
</g>
<defs>
<clipPath id="clip0_56_412">
<rect width="223.418" height="48" fill="white" transform="translate(0.582031)"/>
</clipPath>
</defs>
</svg>
