<svg width="89" height="32" viewBox="0 0 89 32" fill="none" xmlns="http://www.w3.org/2000/svg">
<path d="M88.4156 22.2777C88.5837 26.6948 84.8588 31.0385 79.1712 31.8813C78.5712 31.9702 77.9519 31.9926 77.3416 31.9928C55.2591 31.9991 33.1765 32.0028 11.094 31.9973C5.71641 31.996 1.21474 28.783 0.161275 24.2164C0.053011 23.7471 0.00929743 23.2593 0.00808944 22.7799C-0.00315794 18.3118 1.5797e-05 13.8437 0.00188808 9.37554C0.00365169 5.16772 3.58929 1.23242 8.32291 0.301878C9.27176 0.115351 10.2645 0.0134669 11.2372 0.0127724C33.2826 -0.0029909 55.328 -0.000904224 77.3734 0.00210073C83.0432 0.00287475 87.796 3.71023 88.3913 8.58493C88.4225 8.83967 88.4123 9.09867 88.4124 9.3557C88.4143 13.647 88.4147 17.9383 88.4156 22.2777Z" fill="#0044F1"/>
<path d="M15.1158 9.94998C15.1153 9.77571 15.114 9.64721 15.1148 9.51873C15.1189 8.93738 15.5954 8.33888 16.1684 8.24096C16.2783 8.22219 16.4416 8.31521 16.5308 8.40547C18.5407 10.4376 20.5425 12.4778 22.5498 14.5125C22.7573 14.7228 22.7249 14.8831 22.5295 15.0814C20.5236 17.1174 18.5238 19.1594 16.52 21.1975C16.3294 21.3913 15.4974 21.5388 15.3032 21.3961C15.2227 21.3369 15.1777 21.1828 15.1758 21.0709C15.1639 20.3644 15.1474 19.6566 15.1818 18.9515C15.1913 18.7575 15.3318 18.5353 15.4755 18.3878C16.5288 17.3072 17.5883 16.2322 18.669 15.1791C18.9665 14.8891 18.9924 14.7135 18.6783 14.4135C17.6916 13.4709 16.7559 12.4743 15.7569 11.5454C15.2834 11.1052 15.0057 10.647 15.1158 9.94998Z" fill="#1AEC03"/>
<path d="M10.3026 21.3281C10.2131 21.3733 10.155 21.4083 10.0938 21.4148C9.08484 21.5209 9.16936 21.5113 9.06464 20.5063C8.93015 19.2157 9.30058 18.2547 10.3129 17.4122C11.2438 16.6375 12.0286 15.6873 12.9032 14.7883C12.797 14.6657 12.7118 14.5546 12.6139 14.4562C11.5489 13.3862 10.4705 12.3291 9.42629 11.2392C9.24098 11.0458 9.16097 10.7263 9.09668 10.45C9.04348 10.2214 9.11632 9.9657 9.07888 9.7307C8.97695 9.09098 9.22409 8.69218 9.79427 8.38425C10.1369 8.19921 10.3161 8.23098 10.5693 8.49324C11.9298 9.90227 13.3047 11.2974 14.676 12.6959C15.2381 13.2691 15.7975 13.8452 16.3703 14.4076C16.6361 14.6686 16.6801 14.8589 16.3813 15.1592C14.3541 17.1967 12.3465 19.2537 10.3026 21.3281Z" fill="#1AEC03"/>
<path d="M32.9874 9.30814C33.7059 9.30814 34.3459 9.47656 34.9074 9.8134C35.4688 10.139 35.9066 10.5938 36.221 11.1776C36.5354 11.7502 36.6926 12.3959 36.6926 13.1145V13.3334C36.6926 14.052 36.5354 14.7032 36.221 15.2871C35.9066 15.8709 35.4688 16.3313 34.9074 16.6681C34.3459 16.9938 33.7059 17.1566 32.9874 17.1566H30.2084V20.8955H26.4863V9.30814H32.9874ZM30.2084 14.445H31.741C32.134 14.445 32.4259 14.3439 32.6168 14.1418C32.8189 13.9397 32.92 13.6646 32.92 13.3166V13.1818C32.92 12.8225 32.8189 12.5474 32.6168 12.3566C32.4259 12.1545 32.134 12.0534 31.741 12.0534H30.2084V14.445ZM49.6388 12.8618C49.6388 13.5692 49.4479 14.2092 49.0662 14.7818C48.6844 15.3545 48.1286 15.7755 47.3988 16.045L49.9756 20.8955H45.7988L43.7441 16.6681H42.363V20.8955H38.6409V9.30814H45.7314C46.5623 9.30814 47.2697 9.47095 47.8535 9.79656C48.4486 10.1109 48.8921 10.5432 49.1841 11.0934C49.4872 11.6324 49.6388 12.2218 49.6388 12.8618ZM45.8493 13.0134C45.8493 12.7102 45.7483 12.4576 45.5462 12.2555C45.3441 12.0534 45.097 11.9524 44.8051 11.9524H42.363V14.0913H44.8051C45.097 14.0913 45.3441 13.9902 45.5462 13.7881C45.7483 13.5748 45.8493 13.3166 45.8493 13.0134ZM58.2505 9.30814C58.9691 9.30814 59.6091 9.47656 60.1705 9.8134C60.7319 10.139 61.1698 10.5938 61.4842 11.1776C61.7986 11.7502 61.9558 12.3959 61.9558 13.1145V13.3334C61.9558 14.052 61.7986 14.7032 61.4842 15.2871C61.1698 15.8709 60.7319 16.3313 60.1705 16.6681C59.6091 16.9938 58.9691 17.1566 58.2505 17.1566H55.4716V20.8955H51.7495V9.30814H58.2505ZM55.4716 14.445H57.0042C57.3972 14.445 57.6891 14.3439 57.88 14.1418C58.0821 13.9397 58.1831 13.6646 58.1831 13.3166V13.1818C58.1831 12.8225 58.0821 12.5474 57.88 12.3566C57.6891 12.1545 57.3972 12.0534 57.0042 12.0534H55.4716V14.445ZM68.7714 9.10603C70.2535 9.10603 71.4718 9.40919 72.4262 10.0155C73.3805 10.6106 73.869 11.4976 73.8914 12.6766V12.8787H70.4051V12.8113C70.4051 12.4745 70.2816 12.1938 70.0346 11.9692C69.7876 11.7446 69.4114 11.6324 68.9062 11.6324C68.4121 11.6324 68.0304 11.7053 67.7609 11.8513C67.5027 11.9973 67.3735 12.1769 67.3735 12.3902C67.3735 12.6934 67.5532 12.918 67.9125 13.0639C68.2718 13.2099 68.85 13.3615 69.6472 13.5187C70.5791 13.7095 71.3427 13.9116 71.9377 14.125C72.5441 14.3271 73.0718 14.6639 73.5209 15.1355C73.97 15.6071 74.2002 16.2471 74.2114 17.0555C74.2114 18.4253 73.7455 19.4415 72.8135 20.1039C71.8928 20.7664 70.6577 21.0976 69.1083 21.0976C67.3005 21.0976 65.8914 20.7945 64.8809 20.1881C63.8816 19.5818 63.382 18.5095 63.382 16.9713H66.902C66.902 17.5552 67.0535 17.9481 67.3567 18.1502C67.6598 18.3411 68.1314 18.4366 68.7714 18.4366C69.243 18.4366 69.6304 18.386 69.9335 18.285C70.2479 18.1839 70.4051 17.9762 70.4051 17.6618C70.4051 17.3811 70.2311 17.1734 69.883 17.0387C69.5462 16.8927 68.9904 16.7411 68.2156 16.5839C67.2725 16.3818 66.4921 16.1741 65.8746 15.9608C65.257 15.7362 64.7181 15.3713 64.2577 14.866C63.7974 14.3608 63.5672 13.6759 63.5672 12.8113C63.5672 11.5425 64.0556 10.6106 65.0325 10.0155C66.0205 9.40919 67.2669 9.10603 68.7714 9.10603ZM75.8397 20.8955V17.5439H79.4102V20.8955H75.8397Z" fill="white"/>
</svg>
