<svg width="100" height="48" viewBox="0 0 100 48" fill="none" xmlns="http://www.w3.org/2000/svg">
<path fill-rule="evenodd" clip-rule="evenodd" d="M22.3997 41.5996C24.3162 40.4101 25.927 38.9585 27.2897 37.4469C28.2655 39.4395 30.2235 40.7997 32.2998 40.7997C33.8998 40.7997 35.4998 39.9997 36.5998 38.4997C36.9998 39.8997 37.9998 40.7997 39.6998 40.7997C40.9755 40.7997 43.7567 39.4977 46.2784 37.5685L45.9997 38.9996C45.8997 39.3996 45.8997 39.6996 45.8997 39.8996C45.9997 40.4996 46.3997 40.7996 46.9997 40.7996C48.1997 40.7996 49.8997 39.6996 50.2997 37.8996L50.8997 35.3996C51.5997 32.1996 56.2997 27.3996 57.5997 27.3996C57.6997 27.3996 57.8997 27.4996 57.8997 27.6996C57.9393 28.0171 57.7112 28.6182 57.3779 29.4966C56.8714 30.8313 56.1218 32.8063 55.6997 35.3996C55.4997 36.1996 55.4997 36.9996 55.5997 37.5996C55.7997 39.4996 56.8997 40.7996 58.9997 40.7996C60.7968 40.7996 64.6931 39.2656 67.424 36.1975C67.6298 37.8629 67.9821 39.2794 68.4997 40.1997C68.6997 40.5997 69.1997 40.6997 69.6997 40.6997C70.2997 40.6997 71.0997 40.4997 71.9997 39.9997C74.0997 38.8997 76.7997 36.2997 79.3997 32.4997C79.7997 32.5997 80.0997 32.5997 80.3997 32.5997C81.4373 32.5997 82.597 32.2334 83.6737 31.5855C83.2262 32.9368 83.0518 34.3169 83.1998 35.5996C83.5998 38.5996 86.0998 40.8996 88.7998 40.8996C90.2998 40.8996 91.8998 39.9996 92.9998 38.5996C93.3998 40.4996 94.5998 42.4996 97.5998 43.6996C97.7998 43.7996 97.9997 43.7996 98.1998 43.7996C98.7998 43.7996 99.1998 43.3996 99.0998 42.8996C99.0998 42.6996 98.9997 42.3996 98.6998 42.1996C97.9997 41.5996 97.1998 40.4996 96.9998 38.7996C96.8998 37.9996 96.8998 36.9996 97.3998 35.9996C97.9998 33.2996 98.0998 32.4996 98.0998 32.1996C97.9998 31.4996 97.4998 31.1996 96.8998 31.1996C95.6998 31.1996 93.9998 32.3996 93.5998 34.0996C92.8997 36.6996 91.0998 38.3996 89.8998 38.3996C88.3998 38.3996 87.5998 36.7996 87.3998 35.0996C86.8998 30.8996 89.4998 25.7996 93.3998 25.7996C94.4998 25.7996 95.7998 26.1996 95.8998 27.3996C96.0226 28.5056 95.3527 28.781 94.841 28.9914C94.52 29.1233 94.2612 29.2297 94.2998 29.4996C94.3998 30.2996 95.6998 30.4996 96.5998 30.4996C97.3997 30.4996 99.9998 29.8996 99.5998 26.9996C99.2998 24.6996 96.7998 23.5996 93.9998 23.5996C90.6572 23.5996 87.8124 25.292 85.8752 27.6339C85.6073 27.7921 85.3246 28.0747 84.9997 28.3997C84.3997 29.0997 83.1997 29.7997 81.6997 29.7997C81.4997 29.7997 81.0997 29.6997 81.0997 29.6997C82.0997 27.7997 82.7997 25.7997 82.7997 24.0997C82.7997 21.2997 81.0997 19.8997 79.1997 19.8997C76.7997 19.8997 74.2997 21.9997 74.2997 26.1997C74.2997 28.6997 75.2997 30.6997 76.9997 31.7997C74.9997 34.9997 72.2997 37.6997 71.8997 37.6997C71.7616 37.6997 71.7189 37.5567 71.6727 37.4023C71.652 37.3331 71.6307 37.2616 71.5997 37.1997C71.2997 36.0997 70.9997 33.8997 70.9997 32.5997C70.9997 30.1997 71.3997 27.7997 72.2997 25.2997C72.3997 24.9997 72.4997 24.6997 72.4997 24.4997C72.4997 23.7997 71.9997 23.4997 71.3997 23.4997C70.1997 23.4997 68.2997 24.8997 67.7997 26.3997C67.3997 27.7997 67.1997 29.7997 67.1997 32.1997C67.1997 32.6398 67.2068 33.0764 67.2213 33.5063C64.8348 36.7234 61.8899 37.7996 60.9997 37.7996C59.8997 37.7996 59.6997 36.7996 59.8997 36.3996C60.5997 33.4996 61.4997 30.1996 62.2997 27.8996C62.6997 26.7996 62.8997 25.7996 62.7997 25.1996C62.5997 24.0996 61.8997 23.5996 60.8997 23.5996C58.4997 23.5996 54.6997 25.9996 52.1997 29.2996L52.9997 25.6996C53.0997 25.2996 53.0997 24.9996 53.0997 24.7996C52.9997 24.0996 52.5997 23.7996 51.9997 23.7996C49.1997 23.7996 48.6997 25.1996 48.3997 26.5996C48.3417 26.9471 47.5459 31.0513 46.8863 34.4442C44.7524 36.4026 42.3614 37.6997 41.6998 37.6997C40.8998 37.6997 40.5998 37.0997 40.5998 36.5997C40.5998 36.2543 40.7985 35.3127 40.9863 34.4231C41.1248 33.7671 41.2573 33.1392 41.2998 32.7997C41.3998 32.3997 41.3998 32.0997 41.3998 31.8997C41.2998 31.2997 40.7998 30.9997 40.1998 30.9997C38.9998 30.9997 37.2998 32.1997 36.8998 33.8997C36.2998 36.4997 34.4998 38.1997 33.2998 38.1997C31.7998 38.1997 30.9998 36.5997 30.7998 34.9997C30.2998 31.3997 32.5998 25.5997 36.7998 25.5997C37.9998 25.5997 39.1998 25.9997 39.2998 27.1997C39.4209 28.3501 38.8087 28.6206 38.3291 28.8326C38.0166 28.9708 37.7603 29.084 37.7998 29.3997C37.8998 30.1997 39.1998 30.3997 39.9998 30.3997C40.8998 30.3997 43.3998 29.7997 42.9998 26.8997C42.6998 24.5997 40.2998 23.3997 37.3998 23.3997C30.6739 23.3997 26.1982 30.0521 26.682 35.3257C24.9739 37.3245 23.2674 38.5264 20.1997 40.0996C18.4997 40.9996 16.4997 41.4996 14.6997 41.4996C9.09971 41.4996 6.39971 36.3996 5.89971 31.9996C4.49971 20.7996 14.4997 5.29961 21.3997 5.29961C22.9997 5.29961 24.3997 6.69961 24.6997 8.89961C25.0997 12.2996 24.9997 14.6996 21.4997 17.5996C21.0997 17.8996 20.9997 18.3996 21.1997 18.6996C21.4997 19.0996 22.4997 19.1996 24.3997 18.1996C28.1997 16.2996 29.4997 13.3996 29.0997 9.99961C28.6997 6.19961 25.3997 3.09961 20.9997 3.09961C18.7997 3.09961 16.4997 3.69961 14.3997 4.99961C5.29971 10.5996 -0.600288 23.1996 0.499712 32.7996C0.899712 35.8996 2.19971 39.1996 4.59971 41.4996C6.19971 42.9996 9.09971 44.7996 12.5997 44.7996C16.3997 44.7996 19.5997 43.3996 22.3997 41.5996ZM78.5997 28.3997C77.5997 27.2997 76.7997 25.5997 76.7997 23.9997C76.7997 23.0997 77.0997 22.0997 77.7997 22.0997C78.3997 22.0997 79.1997 22.9997 79.1997 25.0997C79.1997 26.1997 78.9997 27.2997 78.5997 28.3997Z" fill="#A0A0A0"/>
</svg>
