<svg width="128" height="48" viewBox="0 0 128 48" fill="none" xmlns="http://www.w3.org/2000/svg">
<g clip-path="url(#clip0_56_391)">
<path d="M27.5465 11.6056C27.4201 11.6056 24.9174 11.555 24.9174 11.555C24.9174 11.555 22.8192 9.53263 22.6169 9.30511C22.5411 9.22927 22.44 9.17871 22.3389 9.17871V40.2477L31.7177 37.9219C31.7177 37.9219 27.9004 12.0606 27.8752 11.8837C27.8246 11.7067 27.6729 11.6056 27.5465 11.6056Z" fill="#A0A0A0"/>
<path fill-rule="evenodd" clip-rule="evenodd" d="M27.5464 11.6059C27.6728 11.6059 27.8245 11.707 27.8498 11.884C27.8751 12.061 31.6923 37.9223 31.7176 37.9223L22.3388 40.248L0.699219 36.5066C0.699219 36.5066 3.27777 16.5608 3.32833 15.8529C3.45472 14.9176 3.48 14.8923 4.46592 14.5889C4.50694 14.5889 5.41337 14.306 6.7936 13.8752C7.11448 13.7751 7.46097 13.6669 7.82814 13.5525C8.05566 12.061 8.78878 10.1397 9.74941 8.59762C11.1398 6.42355 12.8336 5.18483 14.5273 5.13427C15.4121 5.10899 16.1452 5.41235 16.7267 6.01907C16.7593 6.03539 16.7814 6.06226 16.8066 6.09286C16.8204 6.10965 16.8351 6.12756 16.8531 6.14547C16.9542 6.12019 17.03 6.12019 17.1311 6.12019C18.4457 6.12019 19.558 6.87858 20.2911 8.29426C20.5186 8.74929 20.6956 9.17905 20.7967 9.53297C21.454 9.33073 21.8585 9.20433 21.8585 9.20433C22.0102 9.15377 22.4146 9.10321 22.6169 9.30545C22.8191 9.53297 24.9173 11.5554 24.9173 11.5554C24.9173 11.5554 27.42 11.6059 27.5464 11.6059ZM18.0412 10.4178C18.6479 10.2155 19.2041 10.0386 19.7097 9.88689C19.4569 9.00209 18.8249 7.53586 17.5356 7.33362C17.9148 8.34482 18.0412 9.55825 18.0412 10.4178ZM13.2887 11.8587C14.5274 11.4795 15.7661 11.1003 16.9036 10.7464C16.9289 9.81105 16.8278 8.42066 16.3222 7.43474C15.8419 7.63698 15.4121 7.9909 15.1087 8.31954C14.2998 9.20433 13.6425 10.5189 13.2886 11.8587L13.2887 11.8587ZM15.5891 6.54995C15.311 6.34771 14.9823 6.27187 14.5779 6.27187C11.974 6.34771 9.67357 10.443 9.06686 13.1986C9.28285 13.1326 9.50454 13.0651 9.73091 12.9963C10.4583 12.7751 11.2341 12.5391 12.0246 12.2885C12.3532 10.5442 13.1875 8.74929 14.2745 7.58642C14.679 7.13138 15.134 6.77746 15.5891 6.54995ZM16.0445 20.5043L17.1315 16.4342C17.1315 16.4342 16.1962 15.9539 14.3508 16.0803C9.59814 16.3836 7.44936 19.6953 7.65159 22.9817C7.7937 25.1843 9.0861 26.1009 10.2176 26.9033C11.099 27.5284 11.8828 28.0842 11.9492 29.1247C11.9997 29.6808 11.6205 30.5151 10.6346 30.5656C9.11783 30.6668 7.19656 29.2258 7.19656 29.2258L6.46344 32.3352C6.46344 32.3352 8.35943 34.3576 11.7975 34.1807C14.6794 34.0037 16.6512 31.7032 16.449 28.341C16.2806 25.7545 14.463 24.5856 13.0267 23.662C12.0906 23.0601 11.3165 22.5623 11.2666 21.8441C11.2666 21.5154 11.2666 20.1756 13.3901 20.0492C14.8311 19.9481 16.0445 20.5043 16.0445 20.5043Z" fill="#A0A0A0"/>
<path d="M44.4084 25.1057C43.3213 24.5243 42.7652 24.0187 42.7652 23.3361C42.7652 22.4766 43.5489 21.9204 44.7623 21.9204C46.178 21.9204 47.442 22.5019 47.442 22.5019L48.4279 19.4683C48.4279 19.4683 47.5178 18.7605 44.8381 18.7605C41.0967 18.7605 38.4929 20.9092 38.4929 23.9175C38.4929 25.6366 39.7063 26.9259 41.3242 27.8612C42.6388 28.5943 43.0938 29.1252 43.0938 29.9089C43.0938 30.7178 42.4366 31.3751 41.2231 31.3751C39.4282 31.3751 37.7092 30.4398 37.7092 30.4398L36.6475 33.4733C36.6475 33.4733 38.2148 34.5351 40.8692 34.5351C44.7117 34.5351 47.4925 32.6391 47.4925 29.2263C47.4672 27.3809 46.0769 26.0663 44.4084 25.1057Z" fill="#A0A0A0"/>
<path d="M59.7281 18.7101C57.8321 18.7101 56.3406 19.6202 55.203 20.9853L55.1524 20.96L56.7956 12.3649H52.5233L48.3521 34.2572H52.6244L54.0401 26.7744C54.5963 23.943 56.0625 22.1987 57.4276 22.1987C58.3882 22.1987 58.7674 22.856 58.7674 23.7914C58.7674 24.3728 58.7169 25.1059 58.5905 25.6874L56.9726 34.2572H61.2449L62.9133 25.4093C63.0903 24.4739 63.2167 23.3616 63.2167 22.6032C63.242 20.1763 61.978 18.7101 59.7281 18.7101Z" fill="#A0A0A0"/>
<path d="M72.9238 18.7097C67.7667 18.7097 64.3539 23.3612 64.3539 28.5436C64.3539 31.8553 66.4016 34.5349 70.2441 34.5349C75.3001 34.5349 78.7129 30.0098 78.7129 24.7011C78.7382 21.6422 76.9433 18.7097 72.9238 18.7097ZM70.8256 31.2738C69.3593 31.2738 68.7526 30.0351 68.7526 28.4678C68.7526 26.0156 70.0166 22.0214 72.3424 22.0214C73.8591 22.0214 74.3647 23.336 74.3647 24.5999C74.3647 27.2291 73.0755 31.2738 70.8256 31.2738Z" fill="#A0A0A0"/>
<path d="M89.6849 18.7097C86.803 18.7097 85.1598 21.263 85.1598 21.263H85.1093L85.3621 18.9625H81.5701C81.3931 20.5046 81.0392 22.8809 80.7106 24.6505L77.7276 40.324H81.9998L83.188 33.9788H83.2891C83.2891 33.9788 84.1739 34.5349 85.7918 34.5349C90.8225 34.5349 94.1089 29.3778 94.1089 24.1702C94.1089 21.2883 92.8196 18.7097 89.6849 18.7097ZM85.5896 31.3244C84.4773 31.3244 83.82 30.6924 83.82 30.6924L84.5278 26.6982C85.0334 24.0185 86.4238 22.2489 87.9153 22.2489C89.2299 22.2489 89.6344 23.4624 89.6344 24.5999C89.6344 27.3807 87.9912 31.3244 85.5896 31.3244Z" fill="#A0A0A0"/>
<path d="M100.226 12.567C98.8608 12.567 97.7737 13.654 97.7737 15.0444C97.7737 16.3084 98.5827 17.1932 99.7961 17.1932H99.8467C101.187 17.1932 102.324 16.2832 102.349 14.7158C102.349 13.4771 101.515 12.567 100.226 12.567Z" fill="#A0A0A0"/>
<path d="M94.2348 34.2317H98.5071L101.414 19.0638H97.1167L94.2348 34.2317Z" fill="#A0A0A0"/>
<path d="M112.31 19.0388H109.327L109.478 18.3309C109.731 16.8647 110.591 15.5754 112.032 15.5754C112.79 15.5754 113.397 15.8029 113.397 15.8029L114.231 12.4407C114.231 12.4407 113.498 12.0615 111.905 12.0615C110.388 12.0615 108.872 12.4913 107.709 13.4772C106.243 14.7159 105.56 16.5108 105.231 18.3309L105.105 19.0388H103.108L102.476 22.2746H104.473L102.198 34.2572H106.47L108.745 22.2746H111.703L112.31 19.0388Z" fill="#A0A0A0"/>
<path d="M122.624 19.0638C122.624 19.0638 119.944 25.8135 118.756 29.5044H118.705C118.629 28.3162 117.644 19.0638 117.644 19.0638H113.144L115.722 32.993C115.773 33.2964 115.748 33.4986 115.621 33.7008C115.116 34.6615 114.281 35.5968 113.295 36.2794C112.486 36.8608 111.576 37.24 110.869 37.4928L112.057 41.1331C112.916 40.9562 114.736 40.2231 116.253 38.8074C118.2 36.9872 120.02 34.1559 121.865 30.3133L127.098 19.0638H122.624Z" fill="#A0A0A0"/>
</g>
<defs>
<clipPath id="clip0_56_391">
<rect width="127" height="48" fill="white" transform="translate(0.699219)"/>
</clipPath>
</defs>
</svg>
