<svg width="114" height="48" viewBox="0 0 114 48" fill="none" xmlns="http://www.w3.org/2000/svg">
<g clip-path="url(#clip0_56_397)">
<path d="M48.9368 25.6501C48.9368 30.9734 44.7724 34.896 39.6617 34.896C34.5511 34.896 30.3867 30.9734 30.3867 25.6501C30.3867 20.2894 34.5511 16.4043 39.6617 16.4043C44.7724 16.4043 48.9368 20.2894 48.9368 25.6501ZM44.8766 25.6501C44.8766 22.3236 42.463 20.0476 39.6617 20.0476C36.8605 20.0476 34.4469 22.3236 34.4469 25.6501C34.4469 28.9433 36.8605 31.2527 39.6617 31.2527C42.463 31.2527 44.8766 28.9391 44.8766 25.6501Z" fill="#A0A0A0"/>
<path d="M68.9465 25.6501C68.9465 30.9734 64.7821 34.896 59.6715 34.896C54.5609 34.896 50.3965 30.9734 50.3965 25.6501C50.3965 20.2936 54.5609 16.4043 59.6715 16.4043C64.7821 16.4043 68.9465 20.2894 68.9465 25.6501ZM64.8864 25.6501C64.8864 22.3236 62.4728 20.0476 59.6715 20.0476C56.8702 20.0476 54.4567 22.3236 54.4567 25.6501C54.4567 28.9433 56.8702 31.2527 59.6715 31.2527C62.4728 31.2527 64.8864 28.9391 64.8864 25.6501Z" fill="#A0A0A0"/>
<path d="M88.1212 16.9629V33.562C88.1212 40.3901 84.0943 43.1789 79.3339 43.1789C74.8527 43.1789 72.1556 40.1817 71.1385 37.7306L74.6734 36.2591C75.3029 37.7639 76.8452 39.5397 79.3297 39.5397C82.3769 39.5397 84.2652 37.6597 84.2652 34.1206V32.7909H84.1235C83.2148 33.9122 81.464 34.8918 79.2546 34.8918C74.6317 34.8918 70.3965 30.865 70.3965 25.6835C70.3965 20.4645 74.6317 16.4043 79.2546 16.4043C81.4598 16.4043 83.2106 17.3839 84.1235 18.4719H84.2652V16.9671H88.1212V16.9629ZM84.5529 25.6835C84.5529 22.4278 82.3811 20.0476 79.6173 20.0476C76.8161 20.0476 74.4692 22.4278 74.4692 25.6835C74.4692 28.9058 76.8161 31.2527 79.6173 31.2527C82.3811 31.2527 84.5529 28.9058 84.5529 25.6835Z" fill="#A0A0A0"/>
<path d="M94.4787 7.2334V34.329H90.5186V7.2334H94.4787Z" fill="#A0A0A0"/>
<path d="M109.911 28.6934L113.062 30.7944C112.045 32.2992 109.594 34.8921 105.359 34.8921C100.106 34.8921 96.1836 30.8319 96.1836 25.6462C96.1836 20.1479 100.14 16.4004 104.904 16.4004C109.702 16.4004 112.049 20.2188 112.816 22.2822L113.237 23.3327L100.877 28.4517C101.824 30.3067 103.295 31.2529 105.359 31.2529C107.426 31.2529 108.86 30.2358 109.911 28.6934ZM100.21 25.3669L108.472 21.9362C108.018 20.7815 106.651 19.977 105.042 19.977C102.978 19.977 100.106 21.7987 100.21 25.3669Z" fill="#A0A0A0"/>
<path d="M15.3967 23.2447V19.3221H28.6151C28.7444 20.0058 28.8111 20.8145 28.8111 21.6899C28.8111 24.6329 28.0065 28.272 25.4137 30.8648C22.8917 33.491 19.6694 34.8917 15.4008 34.8917C7.48894 34.8917 0.835938 28.4471 0.835938 20.5352C0.835938 12.6233 7.48894 6.17871 15.4008 6.17871C19.7778 6.17871 22.8959 7.89615 25.2386 10.1347L22.4707 12.9026C20.7908 11.3269 18.5147 10.1013 15.3967 10.1013C9.61907 10.1013 5.10036 14.7576 5.10036 20.5352C5.10036 26.3128 9.61907 30.9691 15.3967 30.9691C19.1442 30.9691 21.2785 29.4642 22.6458 28.0969C23.7546 26.9881 24.4841 25.4041 24.7717 23.2406L15.3967 23.2447Z" fill="#A0A0A0"/>
</g>
<defs>
<clipPath id="clip0_56_397">
<rect width="113" height="48" fill="white" transform="translate(0.699219)"/>
</clipPath>
</defs>
</svg>
