<svg width="48" height="48" viewBox="0 0 48 48" fill="none" xmlns="http://www.w3.org/2000/svg">
<path d="M27.846 28.3496C27.846 28.4416 27.876 28.4936 27.928 28.4936C27.9702 28.4879 28.0101 28.4713 28.044 28.4456L43.004 18.7376C43.2567 18.5606 43.5596 18.4694 43.868 18.4776H47.156C47.66 18.4776 48 18.8136 48 19.3176V25.5956C48 26.3556 47.832 26.7956 47.16 27.1976L43.172 29.5976C43.1323 29.6251 43.0861 29.6416 43.038 29.6456C42.99 29.6456 42.942 29.6076 42.942 29.4696V22.1436C42.942 22.0576 42.918 22.0016 42.86 22.0016C42.8176 22.0063 42.7774 22.0229 42.744 22.0496L31.812 29.1516C31.5645 29.32 31.2714 29.4087 30.972 29.4056H23.724C23.216 29.4056 22.88 29.0696 22.88 28.5616V19.5136C22.88 19.4476 22.85 19.3856 22.792 19.3856C22.7504 19.3911 22.7111 19.4077 22.678 19.4336L15.464 23.7596C15.392 23.8076 15.372 23.8416 15.372 23.8756C15.372 23.9036 15.388 23.9336 15.436 23.9856L20.59 29.1356C20.658 29.2036 20.706 29.2556 20.706 29.3136C20.706 29.3616 20.628 29.3996 20.538 29.3996H15.88C15.514 29.3996 15.232 29.3476 15.034 29.1496L11.91 26.0296C11.8982 26.0154 11.8835 26.0038 11.867 25.9955C11.8505 25.9873 11.8324 25.9825 11.814 25.9816C11.78 25.9835 11.747 25.9938 11.718 26.0116L6.498 29.1516C6.24839 29.3192 5.95256 29.4046 5.652 29.3956H0.85C0.336 29.3996 0 29.0596 0 28.5576V22.3976C0 21.6376 0.168 21.1976 0.844 20.7976L4.86 18.3836C4.89117 18.3638 4.92709 18.3527 4.964 18.3516C5.028 18.3516 5.06 18.4116 5.06 18.5516V26.7996C5.06 26.8856 5.08 26.9256 5.142 26.9256C5.18512 26.9189 5.22615 26.9024 5.262 26.8776L18.814 18.7196C19.0767 18.5427 19.3897 18.4557 19.706 18.4716H27.002C27.506 18.4716 27.846 18.8076 27.846 19.3116L27.842 28.3476L27.846 28.3496Z" fill="#A0A0A0"/>
</svg>
