<svg width="113" height="48" viewBox="0 0 113 48" fill="none" xmlns="http://www.w3.org/2000/svg">
<g clip-path="url(#clip0_56_389)">
<path fill-rule="evenodd" clip-rule="evenodd" d="M111.993 30.5633C107.335 38.4606 99.9582 36.1691 97.7427 34.3749C96.7998 35.0147 95.1464 36.417 92.9417 36.255C88.2465 35.9104 86.5651 29.2007 86.5651 29.2007C86.5988 29.2275 85.1665 29.6949 84.3924 29.6866C84.3824 31.6542 82.6815 36.3546 78.0911 36.2945C72.94 36.2273 71.8928 28.5531 71.8928 28.5531C71.8928 28.5531 71.3802 29.2649 69.4312 29.9739C69.5293 28.4622 69.4576 36.0644 63.2838 36.1761C58.403 36.2646 57.0855 28.4348 57.0855 28.4348C57.0855 28.4348 56.2388 29.3143 54.5979 29.6194C54.7022 28.0831 54.5326 36.2019 48.3581 36.1761C44.1854 36.1588 42.7596 31.353 42.8704 30.686C43.012 29.8359 41.4602 36.2957 37.4071 36.195C35.7345 36.1459 34.4876 34.9349 33.7051 33.3204C32.6576 34.5189 31.1368 36.195 29.4308 36.195C26.3684 36.195 25.0183 33.6337 25.247 26.3179C25.2665 25.4502 25.2038 25.109 24.3413 24.9792C23.8236 24.8928 23.2934 24.7292 22.7324 24.643C22.5526 25.243 21.0275 35.9998 15.7834 36.204C14.0242 36.2725 13.0622 34.7485 12.2722 33.6174C11.0612 35.2194 9.46257 36.255 7.18521 36.255C3.32756 36.255 0.699219 33.1365 0.699219 29.2895C0.699219 25.4425 3.32756 22.3242 7.18521 22.3242C7.86729 22.3242 8.05876 22.422 8.68187 22.6038C7.40042 10.9365 10.4267 9.11303 13.0741 9.11303C15.6157 9.11303 19.9577 15.012 13.8481 29.9751C15.2045 34.4381 18.1288 34.1857 19.534 24.9982C19.82 23.1307 19.0553 20.6105 20.2448 20.2588C22.4191 19.616 22.6498 21.5446 23.6693 21.866C24.7473 22.2056 25.3765 22.1724 26.4114 22.3885C28.1797 22.7339 28.8698 23.6838 28.6543 25.7996C28.3956 28.4767 27.943 32.3732 29.323 32.8481C30.3181 33.1931 32.135 31.1293 32.4539 30.0001C32.7726 28.871 32.8392 28.4845 32.8675 27.6563C32.9106 25.8861 32.9647 24.5886 33.2666 23.2499C33.3958 22.7319 33.543 22.3888 34.1291 22.3654C34.6113 22.3531 35.4932 22.2079 35.8815 22.51C36.3989 22.8988 36.3342 23.2933 36.2748 24.3316C35.6731 39.1353 40.3048 31.7452 41.6858 25.8279C41.194 19.1369 41.5317 9.23555 45.7246 9.06949C47.9052 8.98313 48.8692 10.7301 48.9753 12.034C49.2752 15.7168 47.5952 21.8172 45.3856 25.9197C44.1228 34.2907 50.9069 35.9459 51.9918 29.2642C50.2168 28.4202 48.2986 25.0044 49.8595 23.3397C50.7354 22.4055 54.3814 23.7476 54.4411 26.6748C56.2296 26.1965 56.4683 25.1867 56.4931 25.354C56.0015 18.663 56.4575 9.23564 60.6507 9.06957C62.831 8.98321 63.7949 10.7301 63.901 12.0341C64.2009 15.7168 62.5208 21.8173 60.3116 25.9199C59.0486 34.2907 65.8329 35.946 66.9175 29.2643C65.6033 29.0107 62.8293 25.3775 64.4298 23.3398C65.2852 22.2509 68.9178 24.5154 69.3246 26.7717C71.0426 26.2855 71.276 25.3078 71.3006 25.4724C70.8088 18.7816 71.2648 9.35422 75.458 9.18815C77.6384 9.10179 78.6022 10.8487 78.7083 12.1527C79.0082 15.8354 77.3282 21.936 75.1186 26.0385C73.856 34.4095 80.64 36.0644 81.7249 29.3827C79.919 29.082 77.3525 25.2458 79.4182 23.2833C80.2434 22.4992 83.3969 24.5346 84.1351 26.8568C85.1607 26.8173 85.7992 26.4636 85.936 26.4279C84.2986 18.573 85.5176 9.14836 90.0283 9.06969C92.4664 9.02721 94.8498 10.3877 93.8037 17.8606C92.805 24.9906 89.2153 27.9827 89.2237 28.0285C89.4326 28.8827 91.2745 36.0312 95.913 32.2594C95.6729 31.7157 95.4325 31.1603 95.2982 30.4874C94.5294 26.5677 96.0394 22.1404 100.144 21.4249C102.496 21.0149 104.711 22.1598 105.061 24.741C105.637 28.9645 101.824 32.0233 100.373 32.6868C99.7237 32.3178 106.261 36.5107 110.141 28.108C110.366 27.6282 110.637 27.6689 110.989 27.9162C111.237 28.0908 112.651 29.4299 111.993 30.5633ZM9.99131 28.2517C9.7939 27.6615 9.38876 26.361 9.2455 25.7976C8.45649 25.1114 7.89332 25 6.88056 25C4.62989 25 3.30518 27.0809 3.30518 29.3247C3.30518 31.5684 4.74835 33.6496 6.99904 33.6496C8.94951 33.6496 10.434 32.3235 10.8869 30.4462C10.5699 29.7143 10.2554 29.0417 9.99131 28.2517ZM13.0189 12.2015C11.4375 12.2015 10.901 15.974 11.0051 19.1924C11.0972 22.0378 11.8923 24.5428 12.3047 25.6653C12.4095 25.8059 12.39 25.7144 12.4835 25.8636C15.2294 19.8472 14.0905 12.2015 13.0189 12.2015ZM45.9504 12.32C43.9065 12.0855 43.9197 20.6001 44.1734 22.51C45.235 20.8118 47.079 12.7772 45.9504 12.32ZM60.8761 12.32C58.8322 12.0855 58.8454 20.6001 59.0992 22.51C60.1607 20.8118 62.0049 12.7772 60.8761 12.32ZM75.6836 12.4384C73.6395 12.204 73.6527 20.7186 73.9066 22.6287C74.968 20.9303 76.8122 12.8956 75.6836 12.4384ZM90.2539 11.8215C87.0693 12.461 87.8109 23.0789 88.2946 24.9412C92.0457 19.789 92.123 11.628 90.2539 11.8215ZM102.189 25.0903C102.027 24.4133 101.217 24.0515 100.659 24.1407C99.0596 24.359 97.5088 26.3505 98.1091 29.3824C98.2427 30.0576 98.5771 30.6792 98.5716 30.6585C102.15 28.2577 102.454 26.3659 102.189 25.0903ZM34.756 20.0218C34.2989 20.0219 33.8522 19.8864 33.4722 19.6326C33.0922 19.3787 32.7959 19.0179 32.6209 18.5957C32.446 18.1735 32.4002 17.7089 32.4894 17.2607C32.5784 16.8124 32.7985 16.4007 33.1216 16.0775C33.4448 15.7543 33.8564 15.5342 34.3047 15.4451C34.7529 15.3559 35.2175 15.4016 35.6398 15.5765C36.062 15.7514 36.4228 16.0476 36.6767 16.4276C36.9306 16.8076 37.0661 17.2544 37.0661 17.7114C37.0661 18.0148 37.0064 18.3152 36.8902 18.5955C36.7742 18.8758 36.6041 19.1305 36.3895 19.345C36.1749 19.5596 35.9203 19.7298 35.6401 19.8459C35.3598 19.962 35.0594 20.0218 34.756 20.0218Z" fill="#A0A0A0"/>
</g>
<defs>
<clipPath id="clip0_56_389">
<rect width="112" height="48" fill="white" transform="translate(0.699219)"/>
</clipPath>
</defs>
</svg>
