<svg width="99" height="48" viewBox="0 0 99 48" fill="none" xmlns="http://www.w3.org/2000/svg">
<g clip-path="url(#clip0_56_410)">
<path fill-rule="evenodd" clip-rule="evenodd" d="M80.2893 20.5972C80.6635 21.2429 80.7859 21.9774 80.8264 22.8032L80.8795 23.9039V31.6007L80.9338 32.7025C81.0423 34.502 82.3694 35.8325 84.1827 35.9457L85.2788 36V23.9039L85.3331 22.8032C85.3781 21.9867 85.4994 21.2382 85.8794 20.588C86.2666 19.921 86.8224 19.3677 87.4911 18.9835C88.1598 18.5993 88.9178 18.3978 89.689 18.3992C90.4602 18.4006 91.2175 18.6049 91.8848 18.9915C92.5521 19.3781 93.1059 19.9335 93.4907 20.6018C93.8649 21.2475 93.9815 21.9959 94.0266 22.8032L94.0809 23.9005V31.6007L94.1352 32.7025C94.2483 34.5112 95.565 35.8418 97.3841 35.9457L98.4802 36V22.8032C98.4802 20.4697 97.5534 18.2317 95.9037 16.5813C94.2539 14.9309 92.0163 14.0032 89.6827 14.0023C88.4337 14.001 87.1989 14.2662 86.0606 14.7803C84.9223 15.2944 83.9068 16.0454 83.082 16.9833C82.2568 16.0458 81.2413 15.2949 80.1031 14.7807C78.965 14.2665 77.7303 14.0007 76.4813 14.0012C74.6542 14.0012 72.9587 14.5555 71.5542 15.513C70.6972 14.5567 68.7799 14.0012 67.6793 14.0012V36L68.78 35.9457C70.621 35.8244 71.9515 34.5297 72.0231 32.7025L72.082 31.6007V23.9039L72.1363 22.8032C72.1825 21.9728 72.298 21.2429 72.6734 20.5926C73.0609 19.9261 73.6165 19.3728 74.2847 18.9882C74.9529 18.6035 75.7103 18.4009 76.4813 18.4005C77.2529 18.4006 78.0109 18.6037 78.6793 18.9893C79.3477 19.3748 79.9029 19.9294 80.2893 20.5972ZM4.98134 35.9469L6.08203 36H22.5809L22.5266 34.9028C22.3776 33.0941 21.0967 31.7728 19.2823 31.655L18.1816 31.6007H8.28342L21.4802 18.3993L21.4259 17.3032C21.3404 15.4761 20.0053 14.1559 18.1816 14.0554L17.0809 14.0058L0.582031 14.0012L0.636315 15.1019C0.780687 16.8932 2.08004 18.2422 3.87949 18.3462L4.98134 18.4005H14.8795L1.68272 31.6018L1.73701 32.7025C1.84558 34.5159 3.15416 35.8291 4.98134 35.9457V35.9469ZM63.3608 17.2212C64.3824 18.2426 65.1928 19.4552 65.7457 20.7898C66.2985 22.1244 66.5831 23.5548 66.5831 24.9994C66.5831 26.444 66.2985 27.8744 65.7457 29.209C65.1928 30.5436 64.3824 31.7562 63.3608 32.7776C61.2969 34.8399 58.4986 35.9983 55.5809 35.9983C52.6632 35.9983 49.8649 34.8399 47.8009 32.7776C43.5056 28.4823 43.5056 21.5166 47.8009 17.2212C48.8216 16.2002 50.0334 15.3902 51.3671 14.8375C52.7008 14.2848 54.1303 14.0002 55.5739 14C57.02 13.999 58.452 14.2831 59.7882 14.836C61.1243 15.3889 62.3383 16.1999 63.3608 17.2224V17.2212ZM60.2481 20.3362C61.4854 21.5744 62.1803 23.2531 62.1803 25.0035C62.1803 26.7538 61.4854 28.4326 60.2481 29.6707C59.01 30.908 57.3312 31.6029 55.5809 31.6029C53.8305 31.6029 52.1518 30.908 50.9136 29.6707C49.6764 28.4326 48.9814 26.7538 48.9814 25.0035C48.9814 23.2531 49.6764 21.5744 50.9136 20.3362C52.1518 19.099 53.8305 18.404 55.5809 18.404C57.3312 18.404 59.01 19.099 60.2481 20.3362ZM32.4883 14C33.932 14.0004 35.3616 14.2851 36.6953 14.8381C38.029 15.391 39.2407 16.2012 40.2613 17.2224C44.5578 21.5166 44.5578 28.4834 40.2613 32.7776C38.1973 34.8399 35.399 35.9983 32.4813 35.9983C29.5637 35.9983 26.7654 34.8399 24.7014 32.7776C20.4061 28.4823 20.4061 21.5166 24.7014 17.2212C25.7221 16.2002 26.9338 15.3902 28.2675 14.8375C29.6012 14.2848 31.0307 14.0002 32.4744 14H32.4883ZM37.1486 20.3339C38.3862 21.5721 39.0814 23.2511 39.0814 25.0017C39.0814 26.7524 38.3862 28.4314 37.1486 29.6696C35.9104 30.9068 34.2317 31.6018 32.4813 31.6018C30.731 31.6018 29.0522 30.9068 27.8141 29.6696C26.5769 28.4314 25.8819 26.7527 25.8819 25.0023C25.8819 23.252 26.5769 21.5732 27.8141 20.335C29.0522 19.0978 30.731 18.4028 32.4813 18.4028C34.2317 18.4028 35.9104 19.0978 37.1486 20.335V20.3339Z" fill="#A0A0A0"/>
</g>
<defs>
<clipPath id="clip0_56_410">
<rect width="98" height="48" fill="white" transform="translate(0.582031)"/>
</clipPath>
</defs>
</svg>
