<svg width="121" height="48" viewBox="0 0 121 48" fill="none" xmlns="http://www.w3.org/2000/svg">
<g clip-path="url(#clip0_56_406)">
<path d="M24.0099 44.5019V47.8321H0.699219V44.5019H24.0099ZM60.4388 44.5019C58.1005 46.6516 55.0377 47.8406 51.8614 47.8319L27.3399 47.7991V44.5019H60.4388ZM95.0991 44.5019L93.9363 47.8319L92.7838 44.5019H95.0991ZM83.9514 44.5019V47.8321H67.301V44.5019H83.9514ZM120.582 44.5019V47.8321H103.932V44.5019H120.582ZM64.2107 38.1448C63.9249 39.3129 63.4738 40.4343 62.8709 41.4748H27.3399V38.1448H64.2107ZM97.3307 38.1448L96.1621 41.4751H91.721L90.5522 38.1448H97.3307ZM83.9514 38.1448V41.4748H67.301V38.1448H83.9514ZM120.582 38.1448V41.4748H103.932V38.1448H120.582ZM24.0099 38.1448V41.4748H0.699219V38.1448H24.0099ZM17.3494 31.787V35.1173H7.35928V31.787H17.3494ZM43.9901 31.787V35.1173H33.9997V31.787H43.9901ZM64.1306 31.787C64.4257 32.8725 64.5755 33.9924 64.576 35.1173H53.3751V31.787H64.1306ZM99.5626 31.787L98.3935 35.1173H89.4892L88.3198 31.787H99.5626ZM83.9511 31.787V35.1173H73.9608V31.787H83.9511ZM113.922 31.787V35.1173H103.932V31.787H113.922ZM17.3494 25.4297V28.7597H7.35928V25.4297H17.3494ZM83.9511 25.4297V28.7597H73.9608V25.4297H83.9511ZM113.922 25.4297V28.7597H103.932V25.4297H113.922ZM60.0893 25.4297C61.1983 26.3731 62.1377 27.4993 62.8669 28.7595H34V25.4295L60.0893 25.4297ZM101.794 25.4297L100.626 28.7597H87.257L86.0882 25.4295L101.794 25.4297ZM93.0051 19.0724L93.9412 21.7641L94.8771 19.0724H113.922V22.4024H103.932V19.3428L102.857 22.4027H85.0256L83.9511 19.3424V22.4027H73.9613V19.0724H93.0051ZM33.9997 19.0724H62.8674C62.1381 20.3327 61.1986 21.459 60.0895 22.4024H34L33.9997 19.0724ZM17.3494 19.0724V22.4024H7.35928V19.0722L17.3494 19.0724ZM17.3494 12.7149V16.0449H7.35928V12.7149H17.3494ZM43.9901 12.7149V16.0449H33.9997V12.7149H43.9901ZM64.5762 12.7149C64.5756 13.8397 64.4258 14.9595 64.1306 16.0449H53.3751V12.7149H64.5762ZM90.7943 12.7149L91.9524 16.0449H73.9613V12.7149H90.7943ZM113.922 12.7149V16.0449H95.9303L97.0881 12.7149H113.922ZM24.0094 6.35732V9.68758H0.699219V6.35708L24.0094 6.35732ZM62.8707 6.35732C63.4735 7.39789 63.9247 8.51922 64.2105 9.68735H27.3395V6.35732H62.8707ZM120.582 6.35732V9.68735H98.1409L99.2989 6.35732H120.582ZM88.5835 6.35732L89.7416 9.68735H67.3007V6.35732H88.5835ZM24.0101 0.000245768V3.33004H0.699219V1.16214e-05L24.0101 0.000245768ZM51.8614 1.16214e-05C55.0368 -0.00428722 58.0981 1.18419 60.4388 3.33004H27.3399V1.16214e-05H51.8614ZM120.582 1.16214e-05V3.33027H100.352L101.51 0.000245768L120.582 1.16214e-05ZM86.3734 1.16214e-05L87.5312 3.33027H67.301V0.000245768L86.3734 1.16214e-05Z" fill="#A0A0A0"/>
</g>
<defs>
<clipPath id="clip0_56_406">
<rect width="119.883" height="48" fill="white" transform="translate(0.699219)"/>
</clipPath>
</defs>
</svg>
