<svg width="25" height="24" viewBox="0 0 25 24" fill="none" xmlns="http://www.w3.org/2000/svg">
<path d="M16.94 2H8.56C4.92 2 2.75 4.17 2.75 7.81V16.18C2.75 19.83 4.92 22 8.56 22H16.93C20.57 22 22.74 19.83 22.74 16.19V7.81C22.75 4.17 20.58 2 16.94 2ZM8.75 13C8.19 13 7.75 12.55 7.75 12C7.75 11.45 8.2 11 8.75 11C9.3 11 9.75 11.45 9.75 12C9.75 12.55 9.31 13 8.75 13ZM12.75 13C12.19 13 11.75 12.55 11.75 12C11.75 11.45 12.2 11 12.75 11C13.3 11 13.75 11.45 13.75 12C13.75 12.55 13.31 13 12.75 13ZM16.75 13C16.19 13 15.75 12.55 15.75 12C15.75 11.45 16.2 11 16.75 11C17.3 11 17.75 11.45 17.75 12C17.75 12.55 17.31 13 16.75 13Z" fill="#7D7D7D"/>
</svg>
