<svg width="25" height="24" viewBox="0 0 25 24" fill="none" xmlns="http://www.w3.org/2000/svg">
<path d="M19.5899 14.49L18.5899 12.83C18.3799 12.46 18.1899 11.76 18.1899 11.35V8.82C18.1899 6.47 16.8099 4.44 14.8199 3.49C14.2999 2.57 13.3399 2 12.2399 2C11.1499 2 10.1699 2.59 9.64994 3.52C7.69994 4.49 6.34994 6.5 6.34994 8.82V11.35C6.34994 11.76 6.15994 12.46 5.94994 12.82L4.93994 14.49C4.53994 15.16 4.44994 15.9 4.69994 16.58C4.93994 17.25 5.50994 17.77 6.24994 18.02C8.18994 18.68 10.2299 19 12.2699 19C14.3099 19 16.3499 18.68 18.2899 18.03C18.9899 17.8 19.5299 17.27 19.7899 16.58C20.0499 15.89 19.9799 15.13 19.5899 14.49Z" fill="#7D7D7D"/>
<path d="M15.0797 20.01C14.6597 21.17 13.5497 22 12.2497 22C11.4597 22 10.6797 21.68 10.1297 21.11C9.80969 20.81 9.56969 20.41 9.42969 20C9.55969 20.02 9.68969 20.03 9.82969 20.05C10.0597 20.08 10.2997 20.11 10.5397 20.13C11.1097 20.18 11.6897 20.21 12.2697 20.21C12.8397 20.21 13.4097 20.18 13.9697 20.13C14.1797 20.11 14.3897 20.1 14.5897 20.07C14.7497 20.05 14.9097 20.03 15.0797 20.01Z" fill="#7D7D7D"/>
</svg>
