<svg width="22" height="20" viewBox="0 0 22 20" fill="none" xmlns="http://www.w3.org/2000/svg">
<path d="M9.8778 2.56525C9.87702 2.30407 9.875 2.11148 9.87634 1.91892C9.88237 1.04763 10.5965 0.150652 11.4554 0.00389763C11.6201 -0.0242438 11.8647 0.11518 11.9985 0.250453C15.0108 3.2961 18.0109 6.35381 21.0194 9.4032C21.3303 9.71835 21.2818 9.95862 20.989 10.2559C17.9826 13.3073 14.9854 16.3677 11.9822 19.4223C11.6966 19.7127 10.4497 19.9337 10.1587 19.7199C10.038 19.6312 9.97051 19.4003 9.96768 19.2325C9.94988 18.1736 9.92516 17.1128 9.97668 16.0562C9.99087 15.7653 10.2015 15.4323 10.4169 15.2112C11.9955 13.5917 13.5834 11.9806 15.203 10.4023C15.649 9.9677 15.6877 9.70453 15.217 9.25489C13.7382 7.84221 12.3358 6.34847 10.8386 4.95639C10.1289 4.29665 9.71281 3.60997 9.8778 2.56525Z" fill="#1AEC03"/>
<path d="M2.6647 19.6182C2.53054 19.6861 2.44343 19.7385 2.35182 19.7481C0.839605 19.9072 0.966279 19.8928 0.809326 18.3866C0.607759 16.4523 1.16294 15.0121 2.6801 13.7494C4.07523 12.5883 5.25149 11.1643 6.56224 9.81692C6.40309 9.63311 6.27546 9.46663 6.12871 9.31918C4.53263 7.71544 2.91634 6.13116 1.35134 4.49772C1.07361 4.20785 0.953701 3.72895 0.85735 3.3149C0.777616 2.97226 0.886781 2.58909 0.830664 2.23688C0.677899 1.27812 1.0483 0.680423 1.90285 0.218929C2.41638 -0.0584056 2.68493 -0.01079 3.06445 0.382278C5.10341 2.49402 7.16402 4.58488 9.21923 6.68091C10.0616 7.54005 10.9001 8.40342 11.7586 9.24631C12.1569 9.63739 12.2229 9.92262 11.775 10.3727C8.73676 13.4264 5.72797 16.5093 2.6647 19.6182Z" fill="#1AEC03"/>
</svg>
