<svg width="14" height="15" viewBox="0 0 14 15" fill="none" xmlns="http://www.w3.org/2000/svg">
<path d="M8.00985 2.31756L9.03651 4.37089C9.17651 4.65673 9.54985 4.93089 9.86485 4.98339L11.7257 5.29256C12.9157 5.49089 13.1957 6.35423 12.3382 7.20589L10.8915 8.65256C10.6465 8.89756 10.5123 9.37006 10.5882 9.70839L11.0023 11.4992C11.329 12.9167 10.5765 13.4651 9.32235 12.7242L7.57818 11.6917C7.26318 11.5051 6.74401 11.5051 6.42318 11.6917L4.67901 12.7242C3.43068 13.4651 2.67235 12.9109 2.99901 11.4992L3.41318 9.70839C3.48901 9.37006 3.35485 8.89756 3.10985 8.65256L1.66318 7.20589C0.811513 6.35423 1.08568 5.49089 2.27568 5.29256L4.13651 4.98339C4.44568 4.93089 4.81901 4.65673 4.95901 4.37089L5.98568 2.31756C6.54568 1.20339 7.45568 1.20339 8.00985 2.31756Z" fill="white"/>
</svg>
