<svg width="32" height="33" viewBox="0 0 32 33" fill="none" xmlns="http://www.w3.org/2000/svg">
<path d="M26.0136 8.60013L18.0936 4.0268C16.8002 3.28013 15.2002 3.28013 13.8936 4.0268L5.98689 8.60013C4.69355 9.3468 3.89355 10.7335 3.89355 12.2401V21.3601C3.89355 22.8535 4.69355 24.2401 5.98689 25.0001L13.9069 29.5735C15.2002 30.3201 16.8002 30.3201 18.1069 29.5735L26.0269 25.0001C27.3202 24.2535 28.1202 22.8668 28.1202 21.3601V12.2401C28.1069 10.7335 27.3069 9.36013 26.0136 8.60013ZM15.0002 11.1335C15.0002 10.5868 15.4536 10.1335 16.0002 10.1335C16.5469 10.1335 17.0002 10.5868 17.0002 11.1335V18.1335C17.0002 18.6801 16.5469 19.1335 16.0002 19.1335C15.4536 19.1335 15.0002 18.6801 15.0002 18.1335V11.1335ZM17.2269 22.9735C17.1602 23.1335 17.0669 23.2801 16.9469 23.4135C16.6936 23.6668 16.3602 23.8001 16.0002 23.8001C15.8269 23.8001 15.6536 23.7601 15.4936 23.6935C15.3202 23.6268 15.1869 23.5335 15.0536 23.4135C14.9336 23.2801 14.8402 23.1335 14.7602 22.9735C14.6936 22.8135 14.6669 22.6401 14.6669 22.4668C14.6669 22.1201 14.8002 21.7735 15.0536 21.5201C15.1869 21.4001 15.3202 21.3068 15.4936 21.2401C15.9869 21.0268 16.5736 21.1468 16.9469 21.5201C17.0669 21.6535 17.1602 21.7868 17.2269 21.9601C17.2936 22.1201 17.3336 22.2935 17.3336 22.4668C17.3336 22.6401 17.2936 22.8135 17.2269 22.9735Z" fill="#FF2E36"/>
</svg>
